<svg width="361" height="154" viewBox="0 0 361 154" fill="none" xmlns="http://www.w3.org/2000/svg">
<path d="M105.53 140.954H115.704V96.1633H105.786L105.658 97.763C105.402 101.474 103.675 103.202 99.8993 103.394L94.5884 103.65V111.84H105.53V140.954ZM147.087 141.594C161.036 141.594 171.466 131.74 171.466 118.559C171.466 105.441 161.036 95.5234 147.087 95.5234C133.138 95.5234 122.708 105.441 122.708 118.559C122.708 131.74 133.138 141.594 147.087 141.594ZM147.087 132.06C139.344 132.06 133.905 126.493 133.905 118.559C133.905 110.688 139.344 105.121 147.087 105.121C154.829 105.121 160.268 110.688 160.268 118.559C160.268 126.493 154.829 132.06 147.087 132.06ZM201.139 141.594C215.088 141.594 225.518 131.74 225.518 118.559C225.518 105.441 215.088 95.5234 201.139 95.5234C187.189 95.5234 176.76 105.441 176.76 118.559C176.76 131.74 187.189 141.594 201.139 141.594ZM201.139 132.06C193.396 132.06 187.957 126.493 187.957 118.559C187.957 110.688 193.396 105.121 201.139 105.121C208.881 105.121 214.32 110.688 214.32 118.559C214.32 126.493 208.881 132.06 201.139 132.06ZM266.33 114.784H254.045V102.626H245.279V114.784H233.057V123.678H245.279V135.835H254.045V123.678H266.33V114.784Z" fill="#050038"/>
</svg>
