<svg width="360" height="155" viewBox="0 0 360 155" fill="none" xmlns="http://www.w3.org/2000/svg">
<path d="M77.6295 141.423H87.8035V96.6321H77.8855L77.7575 98.2317C77.5015 101.943 75.7739 103.671 71.9987 103.863L66.6877 104.119V112.309H77.6295V141.423ZM104.509 129.202C100.094 129.202 97.0866 131.953 97.0866 135.664C97.0866 138.928 99.5821 141.551 103.293 141.551C104.765 141.551 106.109 141.103 107.005 140.335C106.173 143.791 102.973 145.39 97.8544 144.75V149.102C107.005 150.253 112.443 145.902 112.443 138.16C112.443 132.401 109.244 129.202 104.509 129.202ZM141.245 142.063C155.194 142.063 165.624 132.209 165.624 119.028C165.624 105.91 155.194 95.9922 141.245 95.9922C127.295 95.9922 116.866 105.91 116.866 119.028C116.866 132.209 127.295 142.063 141.245 142.063ZM141.245 132.529C133.502 132.529 128.063 126.962 128.063 119.028C128.063 111.157 133.502 105.59 141.245 105.59C148.987 105.59 154.426 111.157 154.426 119.028C154.426 126.962 148.987 132.529 141.245 132.529ZM195.296 142.063C209.245 142.063 219.675 132.209 219.675 119.028C219.675 105.91 209.245 95.9922 195.296 95.9922C181.346 95.9922 170.917 105.91 170.917 119.028C170.917 132.209 181.346 142.063 195.296 142.063ZM195.296 132.529C187.553 132.529 182.114 126.962 182.114 119.028C182.114 111.157 187.553 105.59 195.296 105.59C203.038 105.59 208.477 111.157 208.477 119.028C208.477 126.962 203.038 132.529 195.296 132.529ZM249.348 142.063C263.297 142.063 273.727 132.209 273.727 119.028C273.727 105.91 263.297 95.9922 249.348 95.9922C235.398 95.9922 224.969 105.91 224.969 119.028C224.969 132.209 235.398 142.063 249.348 142.063ZM249.348 132.529C241.605 132.529 236.166 126.962 236.166 119.028C236.166 111.157 241.605 105.59 249.348 105.59C257.09 105.59 262.529 111.157 262.529 119.028C262.529 126.962 257.09 132.529 249.348 132.529ZM314.539 115.252H302.254V103.095H293.488V115.252H281.266V124.147H293.488V136.304H302.254V124.147H314.539V115.252Z" fill="#050038"/>
</svg>
