<svg width="361" height="155" viewBox="0 0 361 155" fill="none" xmlns="http://www.w3.org/2000/svg">
<path d="M131.89 113.313H119.924V99.3634H109.494V113.313H100.984V96.1641H90.5543V121.503H109.302V140.955H119.924V121.503H131.89V113.313ZM156.716 109.857C152.684 109.857 149.357 111.009 146.798 113.121L147.182 105.122H169.833V96.1641H138.735L138.031 121.183H148.269C149.741 119.327 151.853 118.432 154.412 118.432C158.827 118.432 161.899 121.119 161.899 125.47C161.899 129.693 158.955 132.573 154.412 132.573C149.869 132.573 146.798 129.757 146.606 125.022H135.664C135.536 135.004 143.15 141.595 154.22 141.595C165.354 141.595 172.84 134.94 172.84 125.214C172.84 115.936 166.122 109.857 156.716 109.857ZM180.687 140.955H190.861V106.914L191.245 106.85L200.587 137.116H209.865L219.271 106.85L219.655 106.914V140.955H229.829V96.1641H213.704L205.386 126.11H205.13L196.811 96.1641H180.687V140.955ZM271.907 114.784H259.622V102.627H250.855V114.784H238.634V123.678H250.855V135.836H259.622V123.678H271.907V114.784Z" fill="#050038"/>
</svg>
