<svg width="361" height="153" viewBox="0 0 361 153" fill="none" xmlns="http://www.w3.org/2000/svg">
<path d="M126.654 94.5547C115.456 94.5547 107.842 101.529 107.842 111.319C107.842 120.533 114.624 126.996 123.774 126.996C125.118 126.996 126.27 126.804 127.358 126.484L115.008 139.985H127.166L138.043 127.188C140.795 123.925 145.53 118.422 145.53 110.999C145.53 101.401 137.852 94.5547 126.654 94.5547ZM126.718 119.19C122.111 119.19 118.911 116.054 118.911 111.447C118.911 106.84 122.175 103.705 126.718 103.705C131.389 103.705 134.524 106.904 134.524 111.447C134.524 115.99 131.389 119.19 126.718 119.19ZM169.395 94.5547C158.197 94.5547 150.583 101.529 150.583 111.319C150.583 120.533 157.366 126.996 166.516 126.996C167.859 126.996 169.011 126.804 170.099 126.484L157.749 139.985H169.907L180.785 127.188C183.536 123.925 188.271 118.422 188.271 110.999C188.271 101.401 180.593 94.5547 169.395 94.5547ZM169.459 119.19C164.852 119.19 161.653 116.054 161.653 111.447C161.653 106.84 164.916 103.705 169.459 103.705C174.13 103.705 177.265 106.904 177.265 111.447C177.265 115.99 174.13 119.19 169.459 119.19ZM206.645 118.678C213.812 118.678 219.187 113.495 219.187 106.648C219.187 99.7376 213.812 94.5547 206.645 94.5547C199.479 94.5547 194.168 99.7376 194.168 106.648C194.168 113.495 199.479 118.678 206.645 118.678ZM202.166 139.985H212.532L245.422 95.1946H234.992L202.166 139.985ZM206.645 110.999C204.214 110.999 202.486 109.208 202.486 106.648C202.486 104.025 204.214 102.233 206.645 102.233C209.141 102.233 210.869 104.025 210.869 106.648C210.869 109.208 209.141 110.999 206.645 110.999ZM240.878 140.625C248.045 140.625 253.42 135.506 253.42 128.596C253.42 121.749 248.045 116.566 240.878 116.566C233.776 116.566 228.401 121.749 228.401 128.596C228.401 135.506 233.776 140.625 240.878 140.625ZM240.878 133.011C238.447 133.011 236.719 131.155 236.719 128.596C236.719 126.036 238.447 124.181 240.878 124.181C243.374 124.181 245.102 126.036 245.102 128.596C245.102 131.155 243.374 133.011 240.878 133.011Z" fill="#050038"/>
</svg>
