<svg width="361" height="153" viewBox="0 0 361 153" fill="none" xmlns="http://www.w3.org/2000/svg">
<path d="M191.448 113.304V105.177H181.274L181.402 95.1953H172.955L172.763 105.177H163.101L163.229 95.1953H154.719L154.591 105.177H144.033V113.304H154.463L154.335 121.942H144.033V130.068H154.207L154.079 139.986H162.589L162.717 130.068H172.443L172.315 139.986H180.762L180.89 130.068H191.448V121.942H181.018L181.146 113.304H191.448ZM172.571 121.942H162.845L162.973 113.304H172.699L172.571 121.942ZM208.056 139.986H218.23V95.1953H208.312L208.184 96.795C207.928 100.506 206.201 102.234 202.425 102.426L197.114 102.682V110.872H208.056V139.986Z" fill="#050038"/>
</svg>
