<svg width="134" height="46" viewBox="0 0 134 46" fill="none" xmlns="http://www.w3.org/2000/svg">
<g clip-path="url(#clip0_350_435)">
<path d="M126.18 1.05469H7.4445C3.59001 1.05469 0.465332 4.17937 0.465332 8.03385V37.8116C0.465332 41.6661 3.59001 44.7908 7.4445 44.7908H126.18C130.034 44.7908 133.159 41.6661 133.159 37.8116V8.03385C133.159 4.17937 130.034 1.05469 126.18 1.05469Z" fill="#050038"/>
<path d="M27.6593 23.2573C27.6713 22.3253 27.9189 21.4114 28.379 20.6008C28.8391 19.7901 29.4968 19.109 30.2908 18.6208C29.7864 17.9004 29.1209 17.3075 28.3473 16.8892C27.5736 16.4711 26.713 16.239 25.834 16.2114C23.9589 16.0146 22.141 17.3335 21.1854 17.3335C20.2114 17.3335 18.7402 16.231 17.156 16.2635C16.1312 16.2967 15.1325 16.5946 14.2573 17.1285C13.3819 17.6624 12.6598 18.4138 12.1613 19.3097C10.0017 23.0487 11.6125 28.5439 13.6813 31.5662C14.7163 33.0462 15.9259 34.6994 17.5087 34.6408C19.0576 34.5765 19.6362 33.6531 21.5057 33.6531C23.358 33.6531 23.9007 34.6408 25.5157 34.6035C27.1777 34.5765 28.2248 33.1169 29.2236 31.6229C29.9673 30.5684 30.5395 29.403 30.9191 28.1696C29.9535 27.7613 29.1295 27.0777 28.5499 26.2041C27.9702 25.3306 27.6604 24.3057 27.6593 23.2573Z" fill="white"/>
<path d="M24.6082 14.2259C25.5144 13.138 25.9609 11.7398 25.8527 10.3281C24.4683 10.4735 23.1894 11.1352 22.2709 12.1813C21.8219 12.6924 21.478 13.2869 21.2589 13.931C21.0397 14.575 20.9496 15.256 20.9938 15.9348C21.6863 15.942 22.3713 15.7919 22.9974 15.4959C23.6235 15.1999 24.1743 14.7657 24.6082 14.2259Z" fill="white"/>
<path d="M47.2391 30.8961H41.9535L40.6842 34.6441H38.4454L43.4518 20.7773H45.7778L50.7843 34.6441H48.5073L47.2391 30.8961ZM42.5009 29.1666H46.6906L44.6253 23.0838H44.5675L42.5009 29.1666Z" fill="white"/>
<path d="M61.5963 29.589C61.5963 32.7307 59.9147 34.7492 57.3772 34.7492C56.7343 34.7828 56.095 34.6347 55.5325 34.322C54.9699 34.0091 54.5069 33.5442 54.1962 32.9804H54.1482V37.9879H52.073V24.5334H54.0817V26.215H54.1198C54.4448 25.6539 54.9157 25.1914 55.4826 24.8766C56.0494 24.5619 56.691 24.4068 57.339 24.4276C59.9048 24.4276 61.5963 26.456 61.5963 29.589ZM59.4633 29.589C59.4633 27.5421 58.4055 26.1964 56.7916 26.1964C55.206 26.1964 54.1395 27.5705 54.1395 29.589C54.1395 31.626 55.206 32.9902 56.7916 32.9902C58.4055 32.9902 59.4633 31.6543 59.4633 29.589Z" fill="white"/>
<path d="M72.7247 29.589C72.7247 32.7307 71.0431 34.7492 68.5056 34.7492C67.8628 34.7828 67.2235 34.6347 66.6609 34.3219C66.0983 34.0091 65.6352 33.5442 65.3246 32.9804H65.2766V37.9879H63.2014V24.5334H65.21V26.215H65.2483C65.5731 25.6539 66.0441 25.1913 66.6109 24.8766C67.1778 24.5619 67.8193 24.4068 68.4673 24.4276C71.0333 24.4276 72.7247 26.456 72.7247 29.589ZM70.5917 29.589C70.5917 27.5421 69.5338 26.1964 67.92 26.1964C66.3344 26.1964 65.2679 27.5705 65.2679 29.589C65.2679 31.626 66.3344 32.9902 67.92 32.9902C69.5339 32.9902 70.5917 31.6543 70.5917 29.589Z" fill="white"/>
<path d="M80.0783 30.7773C80.2321 32.1524 81.5679 33.0553 83.3934 33.0553C85.1425 33.0553 86.4009 32.1524 86.4009 30.9125C86.4009 29.8361 85.6419 29.1917 83.8449 28.75L82.0477 28.3171C79.5014 27.7021 78.3193 26.5113 78.3193 24.5789C78.3193 22.1863 80.4043 20.543 83.365 20.543C86.2951 20.543 88.3038 22.1863 88.3715 24.5789H86.2766C86.1512 23.1951 85.0073 22.3598 83.3356 22.3598C81.6638 22.3598 80.5199 23.2049 80.5199 24.435C80.5199 25.4154 81.2506 25.9922 83.0379 26.4338L84.5656 26.809C87.4107 27.4818 88.5928 28.6247 88.5928 30.6529C88.5928 33.2472 86.5264 34.872 83.2395 34.872C80.1644 34.872 78.0881 33.2853 77.954 30.7772L80.0783 30.7773Z" fill="white"/>
<path d="M93.0723 22.1406V24.5332H94.9949V26.1765H93.0723V31.75C93.0723 32.6159 93.4567 33.0194 94.3016 33.0194C94.5305 33.0154 94.7585 32.9994 94.9846 32.9714V34.605C94.605 34.676 94.2188 34.7081 93.8317 34.7009C91.7852 34.7009 90.9869 33.9321 90.9869 31.9714V26.1765H89.517V24.5332H90.9869V22.1406H93.0723Z" fill="white"/>
<path d="M96.1068 29.59C96.1068 26.4091 97.981 24.4102 100.902 24.4102C103.833 24.4102 105.698 26.409 105.698 29.59C105.698 32.7797 103.843 34.7698 100.902 34.7698C97.9623 34.7698 96.1068 32.7797 96.1068 29.59ZM103.584 29.59C103.584 27.4079 102.583 26.1201 100.902 26.1201C99.2205 26.1201 98.222 27.4177 98.222 29.59C98.222 31.7808 99.2205 33.0588 100.902 33.0588C102.583 33.0588 103.584 31.7808 103.584 29.59Z" fill="white"/>
<path d="M107.408 24.5333H109.388V26.254H109.435C109.569 25.7166 109.885 25.2417 110.328 24.9091C110.77 24.5764 111.314 24.4064 111.868 24.4275C112.107 24.4267 112.345 24.4527 112.579 24.505V26.446C112.276 26.3538 111.962 26.3114 111.646 26.3206C111.345 26.3084 111.044 26.3615 110.765 26.4764C110.486 26.5913 110.235 26.7652 110.03 26.9862C109.824 27.2072 109.669 27.47 109.575 27.7566C109.481 28.0432 109.449 28.3469 109.484 28.6466V34.6433H107.408V24.5333Z" fill="white"/>
<path d="M122.148 31.675C121.868 33.5103 120.082 34.7698 117.794 34.7698C114.854 34.7698 113.028 32.7993 113.028 29.638C113.028 26.4669 114.863 24.4102 117.707 24.4102C120.504 24.4102 122.263 26.3316 122.263 29.397V30.1079H115.123V30.2334C115.09 30.6054 115.137 30.9803 115.26 31.3329C115.382 31.6857 115.579 32.0081 115.836 32.2789C116.093 32.5498 116.406 32.7628 116.751 32.9039C117.097 33.0449 117.47 33.1108 117.843 33.097C118.333 33.143 118.825 33.0294 119.246 32.7732C119.667 32.517 119.993 32.1318 120.178 31.675H122.148ZM115.133 28.6576H120.187C120.205 28.323 120.155 27.9883 120.038 27.6743C119.922 27.3603 119.741 27.0738 119.508 26.8329C119.275 26.5919 118.995 26.4017 118.685 26.2742C118.375 26.1467 118.042 26.0845 117.707 26.0917C117.369 26.0897 117.034 26.1546 116.721 26.2827C116.409 26.4108 116.125 26.5997 115.885 26.8383C115.646 27.0768 115.456 27.3604 115.327 27.6727C115.198 27.9849 115.132 28.3197 115.133 28.6577V28.6576Z" fill="white"/>
<path d="M42.2407 10.3396C42.6757 10.3084 43.1122 10.3741 43.5189 10.532C43.9254 10.6899 44.2919 10.9362 44.5918 11.2529C44.8917 11.5696 45.1177 11.9489 45.2532 12.3635C45.3887 12.7781 45.4306 13.2176 45.3758 13.6503C45.3758 15.779 44.2253 17.0025 42.2407 17.0025H39.8339V10.3396H42.2407ZM40.8687 16.0603H42.125C42.4359 16.0789 42.7471 16.0279 43.0357 15.9111C43.3244 15.7942 43.5834 15.6145 43.7939 15.385C44.0044 15.1554 44.161 14.8818 44.2524 14.5841C44.3439 14.2863 44.3677 13.972 44.3223 13.6639C44.3645 13.357 44.3381 13.0446 44.2453 12.7491C44.1526 12.4535 43.9955 12.1822 43.7855 11.9545C43.5755 11.7268 43.3177 11.5483 43.0306 11.4319C42.7435 11.3154 42.4343 11.264 42.125 11.2812H40.8687V16.0603Z" fill="white"/>
<path d="M46.5444 14.484C46.5128 14.1536 46.5507 13.8201 46.6554 13.5051C46.7602 13.1902 46.9297 12.9006 47.1529 12.655C47.3761 12.4093 47.6483 12.2131 47.9519 12.0787C48.2554 11.9444 48.5837 11.875 48.9157 11.875C49.2477 11.875 49.576 11.9444 49.8795 12.0787C50.1831 12.2131 50.4552 12.4093 50.6785 12.655C50.9017 12.9006 51.0712 13.1902 51.176 13.5051C51.2808 13.8201 51.3186 14.1536 51.287 14.484C51.3192 14.8147 51.2819 15.1486 51.1773 15.4642C51.0728 15.7796 50.9034 16.0698 50.6801 16.3159C50.4568 16.562 50.1845 16.7586 49.8806 16.8933C49.5767 17.0279 49.2481 17.0974 48.9157 17.0974C48.5834 17.0974 48.2547 17.0279 47.9509 16.8933C47.6469 16.7586 47.3746 16.562 47.1512 16.3159C46.928 16.0698 46.7586 15.7796 46.654 15.4642C46.5495 15.1486 46.5122 14.8147 46.5444 14.484ZM50.2663 14.484C50.2663 13.394 49.7766 12.7566 48.9173 12.7566C48.0548 12.7566 47.5695 13.394 47.5695 14.484C47.5695 15.5827 48.0548 16.2151 48.9173 16.2151C49.7767 16.2151 50.2663 15.5783 50.2663 14.484Z" fill="white"/>
<path d="M57.5915 17.0009H56.5621L55.5229 13.2976H55.4444L54.4095 17.0009H53.3899L52.0039 11.9727H53.0104L53.9112 15.8095H53.9853L55.0191 11.9727H55.971L57.0049 15.8095H57.0833L57.9797 11.9727H58.9721L57.5915 17.0009Z" fill="white"/>
<path d="M60.1372 11.9731H61.0925V12.7719H61.1667C61.2924 12.485 61.5046 12.2445 61.7736 12.0839C62.0425 11.9233 62.3549 11.8506 62.6671 11.8761C62.9118 11.8576 63.1575 11.8946 63.386 11.984C63.6144 12.0734 63.8198 12.2131 63.987 12.3927C64.1541 12.5723 64.2787 12.7873 64.3515 13.0216C64.4244 13.2559 64.4434 13.5035 64.4075 13.7462V17.0013H63.4152V13.9954C63.4152 13.1874 63.0641 12.7855 62.3302 12.7855C62.164 12.7778 61.9982 12.806 61.8441 12.8684C61.6899 12.9307 61.5511 13.0257 61.437 13.1467C61.323 13.2677 61.2365 13.412 61.1834 13.5696C61.1303 13.7272 61.112 13.8944 61.1296 14.0598V17.0014H60.1372V11.9731Z" fill="white"/>
<path d="M65.9895 10.0117H66.9818V17.0029H65.9895V10.0117Z" fill="white"/>
<path d="M68.3615 14.4841C68.33 14.1537 68.3678 13.8202 68.4726 13.5052C68.5774 13.1902 68.7469 12.9007 68.9702 12.655C69.1935 12.4093 69.4656 12.2131 69.7692 12.0787C70.0728 11.9444 70.4011 11.875 70.7331 11.875C71.0651 11.875 71.3934 11.9444 71.6969 12.0787C72.0006 12.2131 72.2727 12.4093 72.496 12.655C72.7192 12.9007 72.8888 13.1902 72.9936 13.5052C73.0984 13.8202 73.1362 14.1537 73.1046 14.4841C73.1368 14.8149 73.0994 15.1487 72.9949 15.4642C72.8904 15.7797 72.7209 16.0699 72.4976 16.316C72.2742 16.5621 72.0019 16.7587 71.698 16.8933C71.3941 17.028 71.0655 17.0975 70.7331 17.0975C70.4008 17.0975 70.0721 17.028 69.7682 16.8933C69.4642 16.7587 69.1919 16.5621 68.9685 16.316C68.7452 16.0699 68.5758 15.7797 68.4713 15.4642C68.3668 15.1487 68.3293 14.8149 68.3615 14.4841ZM72.0834 14.4841C72.0834 13.3941 71.5937 12.7567 70.7345 12.7567C69.8718 12.7567 69.3866 13.3941 69.3866 14.4841C69.3866 15.5828 69.8719 16.2152 70.7345 16.2152C71.5937 16.2152 72.0834 15.5784 72.0834 14.4841Z" fill="white"/>
<path d="M74.1482 15.5783C74.1482 14.6732 74.8222 14.1514 76.0184 14.0773L77.3805 13.9988V13.5647C77.3805 13.0336 77.0293 12.7338 76.351 12.7338C75.797 12.7338 75.4132 12.9371 75.3031 13.2927H74.3423C74.4437 12.429 75.2562 11.875 76.3968 11.875C77.6574 11.875 78.3684 12.5026 78.3684 13.5647V17.0003H77.4131V16.2937H77.3346C77.1753 16.5471 76.9515 16.7538 76.6862 16.8926C76.4208 17.0312 76.1234 17.097 75.8243 17.0832C75.6133 17.1052 75.3999 17.0827 75.198 17.0171C74.9962 16.9516 74.8103 16.8444 74.6524 16.7026C74.4944 16.5608 74.368 16.3875 74.2812 16.1939C74.1943 16.0002 74.149 15.7906 74.1482 15.5783ZM77.3805 15.1487V14.7283L76.1525 14.8068C75.4601 14.8532 75.146 15.0887 75.146 15.532C75.146 15.9845 75.5386 16.2479 76.0784 16.2479C76.2366 16.2639 76.3964 16.248 76.5483 16.201C76.7001 16.154 76.841 16.0768 76.9625 15.9743C77.0839 15.8717 77.1836 15.7458 77.2553 15.6039C77.3272 15.4621 77.3697 15.3073 77.3805 15.1487Z" fill="white"/>
<path d="M79.6733 14.4866C79.6733 12.8977 80.4902 11.8912 81.7606 11.8912C82.0748 11.8767 82.3867 11.952 82.6598 12.1082C82.9328 12.2644 83.1558 12.4951 83.3025 12.7733H83.3767V10.0117H84.369V17.0029H83.4182V16.2085H83.3396C83.1815 16.4848 82.9508 16.7126 82.6724 16.8673C82.3941 17.0219 82.0787 17.0974 81.7606 17.0857C80.4814 17.0858 79.6733 16.0792 79.6733 14.4866ZM80.6984 14.4866C80.6984 15.5531 81.2012 16.1948 82.042 16.1948C82.8784 16.1948 83.3953 15.5438 83.3953 14.4909C83.3953 13.443 82.873 12.7827 82.042 12.7827C81.2066 12.7827 80.6984 13.4288 80.6984 14.4866Z" fill="white"/>
<path d="M88.474 14.484C88.4423 14.1536 88.4802 13.8201 88.585 13.5051C88.6898 13.1902 88.8592 12.9006 89.0825 12.655C89.3057 12.4093 89.5779 12.2131 89.8814 12.0787C90.185 11.9444 90.5133 11.875 90.8452 11.875C91.1772 11.875 91.5055 11.9444 91.8091 12.0787C92.1126 12.2131 92.3847 12.4093 92.6081 12.655C92.8313 12.9006 93.0008 13.1902 93.1058 13.5051C93.21 13.8201 93.2482 14.1536 93.2166 14.484C93.2491 14.8147 93.211 15.1486 93.1068 15.4642C93.0023 15.7796 92.833 16.0698 92.6096 16.3159C92.3863 16.562 92.114 16.7586 91.8101 16.8933C91.5063 17.0279 91.1776 17.0974 90.8452 17.0974C90.5129 17.0974 90.1843 17.0279 89.8803 16.8933C89.5765 16.7586 89.3041 16.562 89.0808 16.3159C88.8575 16.0698 88.6881 15.7796 88.5836 15.4642C88.4791 15.1486 88.4418 14.8147 88.474 14.484ZM92.1958 14.484C92.1958 13.394 91.7062 12.7566 90.8469 12.7566C89.9844 12.7566 89.4991 13.394 89.4991 14.484C89.4991 15.5827 89.9844 16.2151 90.8469 16.2151C91.7062 16.2151 92.1958 15.5783 92.1958 14.484Z" fill="white"/>
<path d="M94.5491 11.9731H95.5048V12.7719H95.5792C95.7048 12.485 95.917 12.2445 96.1859 12.0839C96.4548 11.9233 96.7675 11.8506 97.0792 11.8761C97.324 11.8576 97.5697 11.8946 97.7986 11.984C98.0266 12.0734 98.2322 12.2131 98.3997 12.3927C98.5663 12.5723 98.691 12.7873 98.7636 13.0216C98.8371 13.2559 98.8557 13.5035 98.8203 13.7462V17.0013H97.8274V13.9954C97.8274 13.1874 97.4766 12.7855 96.7424 12.7855C96.5767 12.7778 96.4102 12.806 96.2566 12.8684C96.1022 12.9307 95.9635 13.0257 95.8491 13.1467C95.7355 13.2677 95.649 13.412 95.5959 13.5696C95.5429 13.7272 95.5243 13.8944 95.542 14.0598V17.0014H94.5491V11.9731Z" fill="white"/>
<path d="M104.427 10.7227V11.9975H105.517V12.8333H104.427V15.4189C104.427 15.9456 104.645 16.1763 105.138 16.1763C105.264 16.1758 105.391 16.1682 105.517 16.1534V16.9799C105.339 17.0118 105.157 17.0288 104.977 17.0306C103.873 17.0306 103.434 16.6424 103.434 15.673V12.8333H102.636V11.9974H103.434V10.7227H104.427Z" fill="white"/>
<path d="M106.872 10.0117H107.856V12.7826H107.934C108.066 12.4931 108.284 12.2512 108.559 12.09C108.833 11.9288 109.15 11.8562 109.468 11.8819C109.711 11.8686 109.954 11.9093 110.18 12.001C110.406 12.0925 110.609 12.2329 110.774 12.4119C110.94 12.5909 111.064 12.8043 111.137 13.0368C111.211 13.2691 111.231 13.5149 111.2 13.7565V17.0029H110.206V14.0013C110.206 13.1981 109.832 12.7914 109.131 12.7914C108.96 12.7774 108.788 12.8009 108.627 12.8601C108.467 12.9193 108.321 13.0129 108.201 13.1344C108.08 13.2558 107.988 13.4021 107.93 13.563C107.872 13.724 107.85 13.8957 107.864 14.0661V17.0029H106.872V10.0117Z" fill="white"/>
<path d="M116.984 15.6427C116.849 16.1023 116.557 16.4999 116.158 16.7657C115.76 17.0317 115.281 17.1491 114.805 17.0975C114.474 17.1062 114.145 17.0427 113.84 16.9115C113.536 16.7803 113.263 16.5844 113.043 16.3375C112.821 16.0905 112.658 15.7985 112.561 15.4815C112.464 15.1646 112.437 14.8303 112.483 14.5021C112.438 14.1728 112.465 13.8379 112.562 13.52C112.659 13.2021 112.822 12.9087 113.042 12.6596C113.262 12.4105 113.532 12.2116 113.836 12.0762C114.139 11.9409 114.469 11.8723 114.801 11.8751C116.199 11.8751 117.043 12.8309 117.043 14.4099V14.7562H113.493V14.8118C113.478 14.9964 113.501 15.1821 113.561 15.3571C113.622 15.5322 113.719 15.6926 113.844 15.8283C113.971 15.9638 114.123 16.0716 114.294 16.1447C114.464 16.2177 114.647 16.2544 114.832 16.2523C115.07 16.2808 115.31 16.2381 115.523 16.1295C115.736 16.021 115.912 15.8515 116.028 15.6427H116.984ZM113.493 14.0222H116.033C116.046 13.8535 116.023 13.684 115.966 13.5247C115.909 13.3653 115.819 13.2195 115.702 13.0969C115.586 12.9743 115.445 12.8773 115.288 12.8123C115.133 12.7474 114.965 12.7158 114.795 12.7197C114.624 12.7175 114.454 12.7498 114.295 12.8145C114.135 12.8792 113.991 12.9751 113.869 13.0964C113.748 13.2179 113.652 13.3623 113.587 13.5213C113.523 13.6804 113.491 13.8507 113.493 14.0222Z" fill="white"/>
<path d="M126.18 1.05469H7.4445C3.59001 1.05469 0.465332 4.17937 0.465332 8.03385V37.8116C0.465332 41.6661 3.59001 44.7908 7.4445 44.7908H126.18C130.034 44.7908 133.159 41.6661 133.159 37.8116V8.03385C133.159 4.17937 130.034 1.05469 126.18 1.05469Z" stroke="#A6A6A6" stroke-width="0.930556"/>
</g>
<defs>
<clipPath id="clip0_350_435">
<rect width="134" height="45" fill="white" transform="translate(0 0.421875)"/>
</clipPath>
</defs>
</svg>
