<svg width="27" height="26" viewBox="0 0 27 26" fill="none" xmlns="http://www.w3.org/2000/svg">
<path d="M4.79266 0.1875H21.7659C24.3393 0.1875 26.4198 2.26808 26.4198 4.84147V21.1576C26.4198 23.731 24.3393 25.8116 21.7659 25.8116H4.79266C2.21927 25.8116 0.138672 23.731 0.138672 21.1576V4.84147C0.138672 2.26808 2.21927 0.1875 4.79266 0.1875Z" fill="#470137"/>
<path d="M13.9584 6.92208L10.6732 12.3425L14.1774 18.0915C14.1993 18.1353 14.2102 18.1792 14.1993 18.2229C14.1883 18.2668 14.1446 18.2339 14.0788 18.2448H11.5712C11.396 18.2448 11.2755 18.2339 11.1989 18.1244C10.9689 17.6645 10.728 17.2155 10.4981 16.7555C10.268 16.3066 10.0163 15.8467 9.75337 15.3759C9.49058 14.9049 9.2278 14.434 8.96501 13.9522H8.94313C8.71312 14.4231 8.46122 14.894 8.20943 15.3649C7.95754 15.8358 7.70564 16.3066 7.46474 16.7665C7.21295 17.2264 6.96105 17.6974 6.70916 18.1463C6.6654 18.2558 6.57777 18.2668 6.45737 18.2668H4.04823C4.00437 18.2668 3.9716 18.2887 3.9716 18.2339C3.96061 18.1901 3.9716 18.1463 3.99348 18.1134L7.3991 12.5287L4.08111 6.91109C4.04824 6.86732 4.03724 6.82346 4.05912 6.80158C4.08111 6.7687 4.12487 6.75781 4.16864 6.75781H6.6544C6.70916 6.75781 6.76392 6.7687 6.80778 6.77969C6.85154 6.80158 6.88441 6.83445 6.91729 6.87821C7.12532 7.34913 7.36622 7.82004 7.61811 8.29086C7.8809 8.76177 8.1328 9.2217 8.40647 9.68162C8.66936 10.1415 8.91025 10.6014 9.14017 11.0723H9.16206C9.39207 10.5905 9.63297 10.1196 9.87387 9.65964C10.1148 9.19971 10.3667 8.73979 10.6185 8.27987C10.8704 7.82004 11.1113 7.34913 11.3522 6.9002C11.3631 6.85633 11.385 6.81257 11.4179 6.79069C11.4617 6.7687 11.5055 6.75781 11.5603 6.7687H13.8708C13.9256 6.75781 13.9803 6.79069 13.9913 6.84544C14.0022 6.85633 13.9803 6.9002 13.9584 6.92208Z" fill="#FF61F6"/>
<path d="M19.0176 18.476C18.2073 18.487 17.397 18.3228 16.6633 17.9833C15.9733 17.6657 15.404 17.1401 15.0097 16.4941C14.6045 15.8261 14.4074 14.9938 14.4074 13.9973C14.3965 13.187 14.6045 12.3876 15.0097 11.6868C15.4259 10.975 16.0281 10.3837 16.7509 9.98948C17.5173 9.56243 18.4372 9.3543 19.5213 9.3543C19.5761 9.3543 19.6527 9.3543 19.7512 9.36529C19.8498 9.37618 19.9594 9.37618 20.0907 9.38717V5.9268C20.0907 5.85017 20.1236 5.8064 20.2003 5.8064H22.4231C22.4779 5.79541 22.5218 5.83917 22.5326 5.88304C22.5326 5.89393 22.5326 5.90492 22.5326 5.90492V16.3298C22.5326 16.5269 22.5436 16.7459 22.5546 16.9869C22.5765 17.2168 22.5874 17.4358 22.5984 17.6219C22.5984 17.6986 22.5655 17.7643 22.4889 17.7972C21.9194 18.0381 21.3171 18.2133 20.7039 18.3228C20.1455 18.4213 19.5871 18.476 19.0176 18.476ZM20.0907 16.286V11.4678C19.9922 11.4459 19.8936 11.424 19.7951 11.413C19.6746 11.402 19.5542 11.3911 19.4337 11.3911C19.0066 11.3911 18.5796 11.4788 18.1963 11.6758C17.824 11.8619 17.5065 12.1357 17.2656 12.4861C17.0246 12.8366 16.9041 13.3075 16.9041 13.8769C16.8932 14.2602 16.9589 14.6434 17.0903 15.0048C17.1998 15.3004 17.3641 15.5632 17.5831 15.7822C17.7911 15.9794 18.043 16.1327 18.3277 16.2203C18.6233 16.3188 18.93 16.3627 19.2366 16.3627C19.4008 16.3627 19.5542 16.3517 19.6966 16.3407C19.8389 16.3517 19.9594 16.3298 20.0907 16.286Z" fill="#FF61F6"/>
</svg>
