<svg width="224" height="64" viewBox="0 0 224 64" fill="none" xmlns="http://www.w3.org/2000/svg">
<path fill-rule="evenodd" clip-rule="evenodd" d="M97.7555 49.0962V37.0112H100.964V49.0962H97.7555ZM112.37 39.9384C112.324 39.9251 111.013 39.5736 109.936 39.5736C108.688 39.5736 108.01 39.9789 108.01 40.5538C108.01 41.2829 108.926 41.5376 109.438 41.6949L110.296 41.9603C112.317 42.5838 113.237 43.9263 113.237 45.3845C113.237 48.3916 110.513 49.403 108.13 49.403C106.474 49.403 104.923 49.1064 104.77 49.0756V46.3196C105.045 46.3867 106.349 46.7648 107.71 46.7648C109.259 46.7648 109.971 46.3257 109.971 45.6478C109.971 45.0407 109.354 44.6902 108.582 44.456C108.395 44.3935 108.111 44.3069 107.917 44.247C106.184 43.7146 104.738 42.7247 104.738 40.7444C104.738 38.5048 106.466 37.002 109.336 37.002C110.852 37.002 112.277 37.3591 112.369 37.3827V39.9379L112.37 39.9384ZM141.978 43.2017C141.978 46.6275 139.254 49.402 135.46 49.402C131.665 49.402 128.944 46.6275 128.944 43.2007C128.944 39.7822 131.666 37.0046 135.46 37.0046C139.254 37.0046 141.978 39.7821 141.978 43.2017ZM135.46 40.0537C133.613 40.0537 132.241 41.4643 132.241 43.2017C132.241 44.9443 133.613 46.3524 135.46 46.3524C137.304 46.3524 138.68 44.9443 138.68 43.2017C138.68 41.4643 137.304 40.0537 135.46 40.0537ZM93.1715 40.6481C93.0462 40.5845 92.0458 40.0096 90.5561 40.0096C88.5406 40.0096 87.1445 41.3685 87.1445 43.2023C87.1445 44.9812 88.4824 46.3974 90.5576 46.3974C92.0203 46.3974 93.0379 45.8333 93.1715 45.7626V48.9757C92.7852 49.0818 91.7224 49.402 90.3319 49.402C86.8346 49.402 83.7637 47.0594 83.7637 43.2007C83.7637 39.6274 86.544 37.0046 90.333 37.0046C91.7977 37.0046 92.8788 37.3489 93.1715 37.4339V40.6481ZM125.666 40.6481C125.539 40.5845 124.536 40.0096 123.049 40.0096C121.034 40.0096 119.639 41.3685 119.639 43.2023C119.639 44.9812 120.974 46.3974 123.048 46.3974C124.511 46.3974 125.529 45.8333 125.666 45.7626V48.9757C125.276 49.0818 124.211 49.402 122.83 49.402C119.328 49.402 116.254 47.0594 116.254 43.2007C116.254 39.6274 119.035 37.0046 122.83 37.0046C124.289 37.0046 125.372 37.3489 125.666 37.4339V40.6481Z" fill="#050038"/>
<path fill-rule="evenodd" clip-rule="evenodd" d="M148 20.6694C147.998 19.8409 147.307 19.1702 146.458 19.1712C145.607 19.1702 144.917 19.8409 144.915 20.6699V23.8123C144.901 24.357 145.192 24.8663 145.675 25.1419C146.158 25.4186 146.756 25.4186 147.24 25.1419C147.723 24.8652 148.013 24.3559 147.999 23.8123V20.6694H148ZM139.522 16.5453C139.522 15.7198 138.834 15.0476 137.962 15.0476C137.113 15.0461 136.424 15.7157 136.422 16.5432V16.5443V23.8128C136.422 24.6403 137.11 25.311 137.959 25.311H137.962C138.833 25.311 139.522 24.6413 139.522 23.8118V16.5427V16.5448V16.5453ZM131.029 10.9015C131.028 10.0735 130.338 9.40328 129.489 9.4043H129.488C128.639 9.40276 127.949 10.0724 127.947 10.9004V10.9009V26.7979C127.921 27.3492 128.209 27.8703 128.696 28.1521C129.184 28.4345 129.792 28.4334 130.279 28.1496C130.765 27.8683 131.053 27.3492 131.028 26.799V10.9015H131.029ZM122.533 16.5453C122.532 15.7178 121.842 15.0476 120.993 15.0486C120.144 15.0471 119.454 15.7173 119.452 16.5448V16.5453V23.8123C119.454 24.6398 120.143 25.31 120.993 25.3085C121.842 25.31 122.532 24.6398 122.533 23.8123V16.5432V16.5453ZM114.04 20.6694C114.038 19.8434 113.35 19.1753 112.503 19.1763C111.655 19.1743 110.965 19.8414 110.959 20.6684V23.8128C110.96 24.6403 111.65 25.3105 112.499 25.309C113.349 25.311 114.039 24.6408 114.04 23.8133V23.8128V20.6699V20.6694ZM105.561 16.5453C105.559 15.7142 104.867 15.0425 104.015 15.0435C103.163 15.0425 102.47 15.7142 102.469 16.5453V23.8123C102.47 24.6424 103.162 25.3141 104.014 25.3131H104.015C104.866 25.3146 105.558 24.6429 105.56 23.8128V23.8123V16.5432V16.5453H105.561ZM97.0704 10.9015C97.0704 10.0765 96.3762 9.40635 95.525 9.40635C94.6728 9.40635 93.9786 10.075 93.9786 10.9015V26.7979C93.9802 27.6285 94.6723 28.3007 95.5245 28.2992C96.3767 28.3007 97.0688 27.6285 97.0704 26.7979V10.9015ZM88.5813 16.5453C88.5798 15.7142 87.8877 15.0425 87.0349 15.0435C86.1827 15.0425 85.4906 15.7142 85.4891 16.5453V23.8123C85.4906 24.6424 86.1822 25.3141 87.0339 25.3131H87.0344C87.8866 25.3146 88.5782 24.6429 88.5803 23.8128V23.8123V16.5432V16.5453H88.5813ZM80.0912 20.6699C80.0912 19.8455 79.3971 19.1758 78.5459 19.1758C77.6947 19.1758 77 19.8455 77 20.6689V23.8118C77.0016 24.6424 77.6936 25.3146 78.5459 25.3131C79.3976 25.3146 80.0902 24.6429 80.0917 23.8123V20.6694L80.0912 20.6699Z" fill="#050038"/>
</svg>
