<svg width="289" height="63" viewBox="0 0 289 63" fill="none" xmlns="http://www.w3.org/2000/svg">
<g clip-path="url(#clip0_350_298)">
<path d="M14.2893 42.1042C20.7911 42.1042 23.3273 38.1339 23.3273 31.3409C23.3273 24.5494 20.3613 19.8139 14.4797 19.8139H7.88789V42.1042H14.2893ZM0.953125 13.8836H15.3408C24.4734 13.8836 30.355 21.2496 30.355 31.3409C30.355 36.8887 28.4895 41.769 24.9033 44.7821C22.3686 46.8854 19.0688 48.0819 14.7663 48.0819H0.953125V13.8836ZM50.161 35.8386C50.161 31.0543 47.9144 27.8018 43.9456 27.8018C39.928 27.8018 37.7272 31.0543 37.7272 35.8386C37.7272 40.6212 39.928 43.8249 43.9456 43.8249C47.9144 43.8249 50.161 40.6212 50.161 35.8386ZM31.1293 35.8386C31.1293 28.5197 36.3418 22.8758 43.9456 22.8758C51.548 22.8758 56.7605 28.5197 56.7605 35.8386C56.7605 43.1544 51.548 48.7997 43.9456 48.7997C36.3402 48.7997 31.1277 43.1559 31.1277 35.8386M57.835 35.8386C57.835 28.5197 62.6176 22.8758 70.0767 22.8758C76.4384 22.8758 80.3585 26.5597 81.2196 31.8682H74.8594C74.4296 29.7161 72.7561 28.0884 70.3648 28.0884C66.4432 28.0884 64.4359 31.1031 64.4359 35.8386C64.4359 40.478 66.2999 43.5872 70.2687 43.5872C72.8993 43.5872 74.7649 42.2003 75.1947 39.4264H81.4589C81.0291 44.6389 76.9628 48.7997 70.4121 48.7997C62.6665 48.7997 57.835 43.1559 57.835 35.8386ZM98.3919 48.0833V45.2134H98.2486C96.5751 47.4615 94.6624 48.7525 91.2194 48.7525C85.7676 48.7525 82.7071 45.2623 82.7071 39.9034V23.545H89.1618V38.803C89.1618 41.6729 90.4543 43.252 93.2266 43.252C96.2871 43.252 98.1526 40.9566 98.1526 37.7041V23.545H104.656V48.0833H98.3919ZM136.341 48.0833H142.843V23.545H136.341V48.0833ZM136.341 20.1157H142.843V14.0344H136.341V20.1157ZM162.708 34.7366C162.708 31.1504 160.795 28.0899 156.874 28.0899C153.574 28.0899 151.375 30.6718 151.375 34.7854C151.375 38.9463 153.574 41.3864 156.923 41.3864C161.035 41.3864 162.708 38.3732 162.708 34.7382M145.541 48.7997H151.994C152.521 50.33 153.907 51.5264 156.92 51.5264C160.602 51.5264 162.372 49.7569 162.372 46.4084V43.729H162.228C160.792 45.3552 158.929 46.5989 155.819 46.5989C150.369 46.5989 145.013 42.2948 145.013 34.8814C145.013 27.5625 149.412 22.8758 155.629 22.8758C158.689 22.8758 160.936 24.0708 162.419 26.1284H162.515V23.545H168.779V46.2164C168.779 49.6608 167.678 52.0034 165.862 53.6785C163.804 55.5912 160.649 56.4523 157.016 56.4523C150.321 56.4523 146.208 53.5824 145.539 48.7997M177.93 26.8935H178.073C179.747 24.2629 181.995 22.8758 185.342 22.8758C190.411 22.8758 193.805 26.7014 193.805 32.0587V48.0819H187.302V33.0159C187.302 30.3853 185.771 28.5197 183.046 28.5197C180.177 28.5197 178.073 30.815 178.073 34.1635V48.0819H171.569V23.545H177.93V26.8935ZM121.521 27.4666C116.451 26.3691 114.06 25.5553 114.06 22.7799C114.06 20.3413 116.498 18.7623 120.229 18.7623C123.633 18.7623 126.235 20.3596 126.768 23.545H133.437C132.76 16.9043 127.832 13.2617 120.276 13.2617C112.675 13.2617 107.174 16.7535 107.174 23.4977C107.174 30.6246 112.769 32.2508 118.89 33.6377C124.102 34.8342 127.355 35.5032 127.355 38.8502C127.355 42.0083 124.246 43.252 120.708 43.252C115.831 43.252 113.487 41.6256 113.008 37.512H106.218C106.458 44.7348 111.718 48.847 120.994 48.847C128.694 48.847 134.288 44.9741 134.288 38.0379C134.288 30.6718 128.55 28.9983 121.521 27.4666Z" fill="#050038"/>
</g>
<defs>
<clipPath id="clip0_350_298">
<rect width="287.938" height="61.7009" fill="white" transform="translate(0.953125 0.921875)"/>
</clipPath>
</defs>
</svg>
