<svg width="20" height="32" viewBox="0 0 20 32" fill="none" xmlns="http://www.w3.org/2000/svg">
<g clip-path="url(#clip0_350_42)">
<path d="M5.82454 15.666C5.82454 18.5011 8.1336 20.8102 10.9687 20.8102C12.1995 20.81 13.3891 20.3673 14.3205 19.5627L16.2673 22.9397C14.7301 24.0647 12.8738 24.6695 10.9687 24.666C5.9978 24.666 1.96875 20.6369 1.96875 15.666C1.96875 10.695 5.9978 6.66602 10.9687 6.66602C11.56 6.66594 12.1497 6.72397 12.7296 6.83928L10.9687 10.5218C8.1336 10.5218 5.82454 12.8308 5.82454 15.666ZM17.6208 11.9808H14.9305C15.003 11.5586 15.2644 11.3224 15.7936 11.0546L16.2882 10.8026C17.1734 10.349 17.646 9.83554 17.646 8.9976C17.646 8.47153 17.4412 8.05571 17.0348 7.75644C16.6284 7.45718 16.1497 7.30912 15.589 7.30912C15.1552 7.30402 14.7293 7.42554 14.3636 7.65879C13.995 7.8856 13.7208 8.17856 13.5507 8.54398L14.3288 9.32522C14.6312 8.71409 15.0691 8.41482 15.6456 8.41482C16.1339 8.41482 16.4332 8.66684 16.4332 9.0165C16.4332 9.30947 16.2882 9.55203 15.7275 9.83554L15.4094 9.9899C14.7195 10.3395 14.2407 10.7396 13.9635 11.1932C13.6863 11.6469 13.5507 12.217 13.5507 12.9069V13.0959H17.6208V11.9808ZM17.2635 14.3812H12.8091L10.582 18.237H15.0364L17.2635 22.0959L19.4907 18.237L17.2635 14.3812Z" fill="#050038"/>
</g>
<defs>
<clipPath id="clip0_350_42">
<rect width="19" height="32" fill="white" transform="translate(0.96875)"/>
</clipPath>
</defs>
</svg>
