<svg width="51" height="32" viewBox="0 0 51 32" fill="none" xmlns="http://www.w3.org/2000/svg">
<g clip-path="url(#clip0_350_45)">
<path d="M0.323599 13.2871C0.337422 12.7457 0.445238 12.2108 0.641981 11.7062C0.826371 11.2412 1.1104 10.8223 1.47411 10.4788C1.86314 10.124 2.32136 9.85356 2.81997 9.68444C3.42356 9.48631 4.0571 9.39093 4.69249 9.40337C5.39975 9.38033 6.10563 9.49091 6.77281 9.72774C7.25112 9.90432 7.69213 10.1689 8.07305 10.5078C8.36451 10.7675 8.59582 11.0876 8.75084 11.4459C8.86326 11.7072 8.93743 11.9832 8.97153 12.2661C8.97748 12.3181 8.97074 12.3708 8.95189 12.4197C8.93303 12.4685 8.90261 12.5121 8.86325 12.5467C8.78588 12.617 8.6849 12.6556 8.58035 12.6549H7.41142C7.32011 12.6591 7.23024 12.6311 7.15754 12.5757C7.1012 12.5304 7.05504 12.4737 7.02208 12.4094C6.97312 12.3237 6.92243 12.2391 6.87003 12.1555C6.76295 12.0003 6.63092 11.8639 6.4793 11.7519C6.26598 11.5933 6.03046 11.4671 5.78033 11.3773C5.43224 11.2563 5.06496 11.2001 4.69663 11.2114C4.06589 11.1799 3.44668 11.3887 2.96374 11.7956C2.74611 11.9946 2.57214 12.2365 2.45286 12.5062C2.33358 12.7759 2.27157 13.0673 2.27076 13.3622C2.25005 13.7543 2.24036 14.1468 2.24172 14.5394C2.24172 14.9573 2.24173 15.3504 2.27076 15.7167C2.29794 16.5156 2.53109 17.0957 2.96374 17.4556C3.45715 17.8361 4.07019 18.0279 4.69249 17.9965C5.02322 17.999 5.35296 17.9599 5.6739 17.8799C5.95496 17.8113 6.21806 17.6836 6.44613 17.5058C6.6696 17.3229 6.8433 17.0865 6.95157 16.8193C7.08059 16.4875 7.14188 16.1341 7.13266 15.7789V15.6563H5.37073C5.31936 15.6571 5.26838 15.6472 5.22109 15.6271C5.17379 15.607 5.13122 15.5773 5.09612 15.5397C5.0594 15.5046 5.03027 15.4623 5.01053 15.4155C4.9908 15.3686 4.98089 15.3183 4.98139 15.2674V14.2413C4.98246 14.1382 5.02376 14.0396 5.0965 13.9666C5.16923 13.8935 5.26764 13.8517 5.37073 13.8501H8.69876C8.80193 13.8517 8.90042 13.8935 8.97316 13.9667C9.04591 14.0399 9.08716 14.1386 9.08811 14.2418V15.8286C9.09413 16.3728 9.00106 16.9134 8.81349 17.4242C8.63324 17.8973 8.34885 18.3238 7.98137 18.672C7.5879 19.0436 7.11984 19.3272 6.60831 19.5041C5.3629 19.8939 4.02807 19.8939 2.78266 19.5041C2.28578 19.3398 1.8302 19.0702 1.44693 18.7139C1.08748 18.362 0.809158 17.9358 0.631384 17.4652C0.438161 16.9549 0.332693 16.4156 0.319451 15.8701C0.319451 15.6872 0.302865 15.4854 0.298718 15.2647C0.294571 15.0444 0.298718 14.8154 0.298718 14.5846V13.9064C0.298718 13.6838 0.311158 13.4903 0.319451 13.2991M13.5358 13.7363C13.2913 13.7295 13.048 13.7713 12.8198 13.8594C12.6355 13.9322 12.4669 14.0391 12.3226 14.1754C12.1921 14.2992 12.0863 14.4467 12.0107 14.6099C11.944 14.7539 11.8985 14.9068 11.8757 15.0638H15.1374C15.1165 14.9093 15.0802 14.7572 15.0291 14.6099C14.9751 14.4478 14.8862 14.2995 14.7688 14.1754C14.6352 14.0368 14.4725 13.9289 14.2928 13.8594C14.0509 13.769 13.7935 13.7272 13.5354 13.7363H13.5358ZM9.99903 15.9019C9.99534 15.384 10.0783 14.8698 10.2446 14.3791C10.3958 13.9205 10.6362 13.4963 10.9519 13.1309C11.2625 12.7783 11.6438 12.495 12.0711 12.2992C12.5289 12.0946 13.0256 11.9916 13.5271 11.9974C14.0279 11.9911 14.5243 12.0917 14.983 12.2928C15.413 12.4801 15.7997 12.7541 16.1188 13.0977C16.4317 13.4367 16.6748 13.8339 16.8344 14.2667C17.0039 14.7168 17.0901 15.1942 17.0882 15.6752V16.3244C17.0866 16.4276 17.0448 16.5261 16.9718 16.599C16.8988 16.6719 16.8002 16.7136 16.6971 16.7151H11.8752C11.8706 16.9183 11.9167 17.1197 12.0107 17.2998C12.1029 17.4634 12.2291 17.6053 12.3812 17.7159C12.541 17.8343 12.7217 17.9223 12.9133 17.9758C13.1166 18.0323 13.3266 18.061 13.5377 18.061C13.7911 18.0684 14.0445 18.0366 14.2887 17.9675C14.4592 17.9159 14.6204 17.8357 14.7646 17.7302C14.8457 17.668 14.9328 17.6145 15.025 17.5703C15.1125 17.5376 15.2061 17.5224 15.2996 17.5265H16.4538C16.5598 17.5279 16.6611 17.5698 16.7367 17.6431C16.7751 17.6771 16.8049 17.7197 16.8237 17.7674C16.8425 17.8151 16.8498 17.8666 16.845 17.9177C16.8126 18.1063 16.7357 18.2845 16.6206 18.4374C16.4515 18.6816 16.24 18.8927 15.9963 19.0618C15.6764 19.2843 15.3262 19.4595 14.9563 19.582C14.4973 19.7315 14.0161 19.8016 13.5335 19.7893C13.0343 19.7951 12.539 19.6998 12.0775 19.5092C11.6473 19.3311 11.262 19.0596 10.9496 18.7144C10.6344 18.3534 10.3942 17.9333 10.2428 17.4786C10.0734 16.969 9.99038 16.4347 9.99718 15.8977M20.5462 16.9418C20.5324 17.2017 20.6176 17.4565 20.7854 17.6555C20.9434 17.8343 21.2387 17.9237 21.6737 17.9237H22.5537C22.6567 17.9249 22.7551 17.9662 22.8281 18.0388C22.901 18.1114 22.9428 18.2096 22.9445 18.3126V19.2654C22.9429 19.3687 22.9012 19.4673 22.8282 19.5403C22.7551 19.6133 22.6565 19.6551 22.5533 19.6566H21.4843C20.5785 19.6566 19.8855 19.4373 19.404 18.9991C18.923 18.5614 18.6802 17.8896 18.676 16.9856V13.8801H17.7149C17.6639 13.8807 17.6133 13.8707 17.5664 13.8506C17.5195 13.8305 17.4773 13.8009 17.4426 13.7635C17.4048 13.729 17.3749 13.6868 17.3548 13.6397C17.3347 13.5927 17.3249 13.5419 17.326 13.4908V12.5365C17.3254 12.4855 17.3355 12.435 17.3556 12.3881C17.3756 12.3412 17.4053 12.299 17.4426 12.2642C17.4776 12.2273 17.5199 12.1979 17.5667 12.1778C17.6135 12.1578 17.6639 12.1475 17.7149 12.1477H18.6696V9.79318C18.6711 9.6904 18.7126 9.59225 18.7853 9.51957C18.858 9.44689 18.9561 9.40537 19.0589 9.40383H20.1569C20.2596 9.40537 20.3576 9.44683 20.4303 9.51942C20.503 9.592 20.5446 9.69001 20.5462 9.79271V12.1472H22.4183C22.518 12.153 22.6119 12.1964 22.681 12.2686C22.7501 12.3409 22.7892 12.4366 22.7906 12.5365V13.4912C22.789 13.5939 22.7476 13.692 22.675 13.7647C22.6024 13.8373 22.5044 13.8789 22.4017 13.8806H20.5292L20.5462 16.9423V16.9418ZM30.0346 15.8871L28.445 11.7708L26.8577 15.8871H30.0346ZM29.2398 9.54713C29.303 9.54256 29.3665 9.55108 29.4263 9.57217C29.486 9.59326 29.5408 9.62646 29.5872 9.66968C29.6803 9.7775 29.7507 9.90283 29.795 10.0383L33.3317 19.1659C33.3414 19.1981 33.346 19.2318 33.346 19.2654C33.3446 19.3686 33.303 19.4672 33.23 19.5403C33.1571 19.6133 33.0585 19.655 32.9553 19.6566H31.9149C31.8426 19.6642 31.7695 19.6572 31.6998 19.6362C31.6302 19.6152 31.5655 19.5804 31.5095 19.534C31.4414 19.4655 31.3877 19.384 31.3514 19.2944L30.7271 17.6929H26.1651L25.5408 19.2944C25.5046 19.384 25.4508 19.4655 25.3828 19.534C25.3268 19.5805 25.2621 19.6153 25.1925 19.6364C25.1228 19.6574 25.0497 19.6643 24.9773 19.6566H23.9369C23.8341 19.6543 23.7361 19.6123 23.6636 19.5394C23.5911 19.4665 23.5497 19.3683 23.548 19.2654C23.5473 19.2316 23.5523 19.198 23.5628 19.1659L27.0991 10.0383C27.1433 9.90283 27.2143 9.7775 27.3074 9.66968C27.3536 9.62622 27.4083 9.59287 27.4681 9.57177C27.528 9.55067 27.5915 9.54228 27.6548 9.54713H29.2398ZM39.5225 16.3055C39.5515 16.0372 39.5515 15.7666 39.5225 15.4983C39.4663 14.8744 39.2727 14.421 38.9461 14.1483C38.6101 13.8694 38.1846 13.7216 37.7481 13.7322C37.3129 13.7184 36.8882 13.8667 36.5561 14.1483C36.389 14.3014 36.2538 14.486 36.1585 14.6917C36.0631 14.8973 36.0094 15.1197 36.0004 15.3462C35.9783 15.5284 35.9686 15.7119 35.9714 15.8954C35.9687 16.0793 35.9783 16.2627 36.0004 16.4447C36.0258 16.8962 36.2248 17.3206 36.5561 17.6288C36.8837 17.9191 37.3099 18.0739 37.7481 18.061C38.1846 18.0716 38.6101 17.9238 38.9461 17.6449C39.2727 17.3726 39.4663 16.9215 39.5225 16.2949V16.3055ZM38.1849 19.8004C37.9155 19.8031 37.6468 19.7744 37.3841 19.7147C37.1695 19.6668 36.9603 19.5972 36.7598 19.5069C36.6004 19.4266 36.4503 19.3289 36.3124 19.2157C36.2045 19.1302 36.1037 19.0363 36.011 18.9346V22.0092C36.0094 22.1124 35.9676 22.211 35.8946 22.284C35.8216 22.357 35.7231 22.3987 35.6199 22.4004H34.5237C34.4204 22.3991 34.3216 22.3575 34.2486 22.2844C34.1755 22.2113 34.1339 22.1126 34.1325 22.0092V12.5365C34.135 12.4338 34.1771 12.336 34.25 12.2635C34.3229 12.191 34.421 12.1495 34.5237 12.1477H35.6199C35.7227 12.1493 35.8209 12.1907 35.8938 12.2632C35.9668 12.3357 36.0088 12.4337 36.011 12.5365V12.8697C36.224 12.634 36.4812 12.4425 36.7681 12.3062C36.9686 12.2157 37.1777 12.1459 37.3924 12.0979C37.6551 12.0383 37.9238 12.0097 38.1932 12.0126C38.6442 12.0061 39.0909 12.102 39.4994 12.2932C39.8791 12.4729 40.2182 12.7287 40.4956 13.0443C40.7747 13.3645 40.9952 13.7313 41.1471 14.128C41.3051 14.5362 41.3954 14.9675 41.413 15.4052C41.4235 15.5485 41.4277 15.7171 41.4277 15.9106C41.4277 16.1042 41.4277 16.2728 41.413 16.4161C41.3952 16.8536 41.3054 17.2851 41.1471 17.6933C40.9952 18.09 40.7746 18.4568 40.4956 18.777C40.2181 19.0926 39.8792 19.3481 39.4994 19.528C39.0877 19.7176 38.6381 19.8108 38.1849 19.8004ZM47.6852 16.3055C47.7143 16.0372 47.7143 15.7666 47.6852 15.4983C47.6272 14.8744 47.436 14.421 47.107 14.1483C46.7714 13.8687 46.3456 13.7209 45.909 13.7322C45.4739 13.7184 45.0491 13.8667 44.717 14.1483C44.5499 14.3014 44.4147 14.486 44.3194 14.6917C44.224 14.8973 44.1703 15.1197 44.1614 15.3462C44.1404 15.5285 44.1307 15.7119 44.1323 15.8954C44.1305 16.0793 44.1402 16.2627 44.1614 16.4447C44.1867 16.8962 44.3858 17.3206 44.717 17.6288C45.0448 17.9194 45.4711 18.074 45.909 18.061C46.3456 18.0723 46.7714 17.9244 47.107 17.6449C47.436 17.3726 47.6272 16.9215 47.6852 16.2949V16.3055ZM46.3417 19.7898C46.0723 19.7926 45.8036 19.764 45.5409 19.7045C45.3263 19.6562 45.1171 19.5864 44.9165 19.4963C44.7553 19.4192 44.6032 19.3243 44.4632 19.2133C44.3547 19.1278 44.2531 19.0339 44.1595 18.9323V22.0092C44.1597 22.0605 44.1495 22.1113 44.1295 22.1585C44.1094 22.2057 44.08 22.2484 44.043 22.2838C44.0079 22.3208 43.9656 22.3501 43.9188 22.3702C43.872 22.3902 43.8216 22.4005 43.7706 22.4004H42.6722C42.5692 22.3987 42.4709 22.3569 42.3983 22.2838C42.3256 22.2108 42.2844 22.1122 42.2833 22.0092V12.5365C42.2845 12.4338 42.3259 12.3355 42.3985 12.2629C42.4712 12.1902 42.5694 12.1488 42.6722 12.1477H43.7706C43.873 12.1501 43.9705 12.1919 44.0429 12.2643C44.1153 12.3367 44.1571 12.4342 44.1595 12.5365V12.8697C44.2531 12.7683 44.3549 12.6738 44.4632 12.5886C44.6032 12.478 44.7553 12.3826 44.9165 12.3057C45.1172 12.2157 45.3263 12.1461 45.5409 12.0979C45.8036 12.0384 46.0723 12.0098 46.3417 12.0126C46.7934 12.0061 47.2408 12.102 47.6502 12.2932C48.0294 12.474 48.3682 12.7295 48.6464 13.0443C48.9247 13.3646 49.1445 13.7314 49.2956 14.128C49.4541 14.5362 49.5439 14.9675 49.5619 15.4052C49.572 15.5485 49.5762 15.7171 49.5762 15.9106C49.5762 16.1042 49.5762 16.2728 49.5619 16.4161C49.544 16.8536 49.454 17.2851 49.2956 17.6933C49.1444 18.0898 48.9247 18.4567 48.6464 18.777C48.3682 19.0918 48.0294 19.3473 47.6502 19.528C47.2409 19.7194 46.7935 19.8155 46.3417 19.8091" fill="#050038"/>
</g>
<defs>
<clipPath id="clip0_350_45">
<rect width="50" height="32" fill="white" transform="translate(0.296875)"/>
</clipPath>
</defs>
</svg>
