<svg width="152" height="46" viewBox="0 0 152 46" fill="none" xmlns="http://www.w3.org/2000/svg">
<g clip-path="url(#clip0_350_462)">
<path d="M144.165 1.00781H8.01742C4.15482 1.00781 1.02356 4.13907 1.02356 8.00168V37.8422C1.02356 41.7048 4.15482 44.836 8.01742 44.836H144.165C148.027 44.836 151.159 41.7048 151.159 37.8422V8.00168C151.159 4.13907 148.027 1.00781 144.165 1.00781Z" fill="#050038"/>
<path d="M53.6182 12.0025C53.6182 12.94 53.3406 13.6866 52.7845 14.2436C52.1529 14.9058 51.3298 15.2371 50.3179 15.2371C49.3488 15.2371 48.5249 14.9014 47.8473 14.2291C47.1685 13.5572 46.8298 12.7241 46.8298 11.7301C46.8298 10.7356 47.1685 9.90299 47.8473 9.23067C48.5249 8.55881 49.3488 8.22266 50.3179 8.22266C50.7987 8.22266 51.2591 8.31665 51.6962 8.5042C52.1332 8.6922 52.4839 8.94174 52.7462 9.25428L52.156 9.84479C51.7115 9.3137 51.0995 9.04838 50.3179 9.04838C49.6111 9.04838 49 9.29669 48.4842 9.79365C47.9683 10.2912 47.7106 10.9363 47.7106 11.7301C47.7106 12.5239 47.9683 13.169 48.4842 13.6665C49 14.1636 49.6111 14.4118 50.3179 14.4118C51.0677 14.4118 51.6927 14.1622 52.1931 13.6622C52.518 13.3364 52.7059 12.8837 52.7561 12.3023H50.3179V11.4958H53.5715C53.6029 11.6711 53.6182 11.8395 53.6182 12.0025Z" fill="white"/>
<path d="M53.619 12.005H53.5071C53.5061 12.9212 53.2386 13.6327 52.7061 14.1669L52.7049 14.1679L52.7045 14.1687C52.093 14.8081 51.307 15.1264 50.3186 15.1277C49.3754 15.1264 48.5859 14.8047 47.9267 14.1525C47.269 13.499 46.9436 12.7013 46.9424 11.7326C46.9436 10.7635 47.269 9.96623 47.9267 9.31321C48.5859 8.6606 49.3754 8.33843 50.3186 8.33709C50.785 8.33709 51.2292 8.42806 51.6528 8.60946C52.0767 8.79219 52.4116 9.03166 52.6612 9.32898L52.7469 9.25681L52.6678 9.17769L52.0776 9.76865L52.1567 9.84731L52.2429 9.7757C51.7777 9.21831 51.1248 8.93733 50.3186 8.93901C49.5856 8.93811 48.9409 9.19996 48.4076 9.71583C47.8691 10.2334 47.5986 10.9148 47.5994 11.7326C47.5986 12.5505 47.8691 13.2319 48.4076 13.7494C48.9409 14.2653 49.5856 14.5272 50.3186 14.5262C51.0932 14.5276 51.7533 14.2648 52.273 13.7438C52.6201 13.3958 52.8168 12.9137 52.8684 12.3144L52.8788 12.1929H50.4305V11.6103H53.5721V11.4984L53.4619 11.518C53.4926 11.6877 53.5071 11.8489 53.5071 12.005H53.619H53.7309C53.7309 11.8349 53.7151 11.6601 53.6823 11.4783L53.6657 11.3864H50.2067V12.3048V12.4167H52.7568V12.3048L52.6454 12.2952C52.5961 12.8582 52.4168 13.2823 52.1147 13.5856C51.6339 14.0646 51.0438 14.3011 50.3186 14.3024C49.6381 14.3016 49.0606 14.0672 48.5628 13.5887C48.0698 13.1117 47.8244 12.5029 47.8232 11.7326C47.8244 10.9624 48.0698 10.3536 48.5628 9.87661C49.0606 9.39803 49.6381 9.16371 50.3186 9.16281C51.0753 9.1646 51.6467 9.41459 52.0711 9.91951L52.1498 10.013L52.826 9.33592L52.8985 9.26341L52.8325 9.18508C52.5576 8.85732 52.1913 8.59715 51.741 8.404C51.2899 8.2103 50.8139 8.11328 50.3186 8.11328C49.3238 8.11239 48.4653 8.46208 47.7689 9.15408C47.07 9.84474 46.7178 10.7129 46.7186 11.7326C46.7178 12.7519 47.07 13.6206 47.7694 14.3117C48.4653 15.0032 49.3238 15.3524 50.3186 15.3515C51.3546 15.3524 52.214 15.0083 52.8661 14.3234L52.7853 14.2461L52.8644 14.3252C53.444 13.746 53.7316 12.9635 53.7309 12.005H53.619Z" fill="white"/>
<path d="M58.7778 9.19983H55.7202V11.3287H58.4775V12.1355H55.7202V14.2643H58.7778V15.0891H54.8582V8.375H58.7778V9.19983Z" fill="white"/>
<path d="M58.7767 9.19845V9.08655H55.6071V11.4392H58.3645V12.0218L55.6071 12.0222V14.3749H58.6648V14.9759H54.9689V8.48552H58.6648V9.19845H58.7767V9.08655V9.19845H58.8886V8.37362V8.26172H54.7451V15.1997H58.8886V14.2629V14.151H55.8309V12.246H58.5883V11.3273V11.2154H55.8309V9.31035H58.8886V9.19845H58.7767Z" fill="white"/>
<path d="M62.416 15.0891H61.5527V9.19983H59.6774V8.375H64.2912V9.19983H62.416V15.0891Z" fill="white"/>
<path d="M62.415 15.0878V14.9759H61.6635V9.08655H59.7883V8.48552H64.1783V9.08655H62.3031V15.0878H62.415H62.5269V9.31035H64.4021V8.37362V8.26172H59.5645V9.19845V9.31035H61.4397V15.1997H62.415H62.5269V15.0878H62.415Z" fill="white"/>
<path d="M67.6292 15.0891V8.375H68.4916V15.0891H67.6292Z" fill="white"/>
<path d="M67.6281 15.0878H67.74V8.48552H68.3787V14.9759H67.6281V15.0878H67.74H67.6281V15.1997H68.4906H68.6025V8.26172H67.6281H67.5162V15.1997H67.6281V15.0878Z" fill="white"/>
<path d="M72.3184 15.0891H71.455V9.19983H69.5798V8.375H74.1935V9.19983H72.3184V15.0891Z" fill="white"/>
<path d="M72.3173 15.0878V14.9759H71.5659V9.08655H69.6907V8.48552H74.0806V9.08655H72.2054V15.0878H72.3173V14.9759V15.0878H72.4292V9.31035H74.3044V8.37362V8.26172H69.4669V9.19845V9.31035H71.3421V15.1997H72.3173H72.4292V15.0878H72.3173Z" fill="white"/>
<path d="M78.6406 13.6574C79.1375 14.1605 79.7456 14.4118 80.4646 14.4118C81.1837 14.4118 81.7922 14.1605 82.2884 13.6574C82.7858 13.1543 83.0349 12.5111 83.0349 11.7301C83.0349 10.949 82.7858 10.3059 82.2884 9.80282C81.7922 9.29971 81.1837 9.04838 80.4646 9.04838C79.7456 9.04838 79.1375 9.29971 78.6406 9.80282C78.1444 10.3059 77.8953 10.949 77.8953 11.7301C77.8953 12.5111 78.1444 13.1543 78.6406 13.6574ZM82.9265 14.2195C82.2664 14.8983 81.4455 15.2371 80.4646 15.2371C79.4828 15.2371 78.6624 14.8983 78.0037 14.2195C77.3431 13.5415 77.0145 12.7114 77.0145 11.7301C77.0145 10.7487 77.3431 9.91866 78.0037 9.24074C78.6624 8.56183 79.4828 8.22266 80.4646 8.22266C81.4403 8.22266 82.259 8.56362 82.9221 9.2451C83.5844 9.92659 83.9157 10.7548 83.9157 11.7301C83.9157 12.7114 83.5851 13.5415 82.9265 14.2195Z" fill="white"/>
<path d="M78.6414 13.6599L78.5617 13.7386C79.0772 14.2619 79.7202 14.5276 80.4655 14.5262C81.2103 14.5276 81.8542 14.2619 82.3686 13.7386C82.8875 13.2149 83.1484 12.5374 83.1477 11.7326C83.1484 10.9279 82.8875 10.2504 82.3686 9.72668C81.8542 9.20343 81.2103 8.93767 80.4655 8.93901C79.7202 8.93767 79.0772 9.20343 78.5617 9.72668C78.0442 10.2504 77.7828 10.9279 77.7842 11.7326C77.7828 12.5374 78.0442 13.2149 78.5617 13.7386L78.6414 13.6599L78.7209 13.5812C78.2463 13.0982 78.0088 12.4905 78.008 11.7326C78.0088 10.9747 78.2463 10.3671 78.7209 9.88398C79.1999 9.40105 79.7721 9.16415 80.4655 9.16281C81.1582 9.16415 81.7317 9.40105 82.2095 9.88398C82.6851 10.3671 82.9225 10.9747 82.9234 11.7326C82.9225 12.4905 82.6851 13.0982 82.2095 13.5812C81.7317 14.0643 81.1582 14.3011 80.4655 14.3024C79.7721 14.3011 79.1999 14.0643 78.7209 13.5812L78.6414 13.6599ZM82.9273 14.222L82.8473 14.1443C82.2056 14.8017 81.421 15.1264 80.4655 15.1277C79.5094 15.1264 78.7248 14.8017 78.0844 14.1443L78.0814 14.1407L78.0844 14.1443C77.4441 13.4846 77.1281 12.6891 77.1272 11.7326C77.1281 10.7762 77.4441 9.98068 78.0844 9.32104C78.7248 8.66362 79.5094 8.33843 80.4655 8.33709C81.4149 8.33843 82.1977 8.66496 82.8429 9.32585C83.4855 9.98852 83.8033 10.7828 83.8046 11.7326C83.8033 12.6891 83.4863 13.4846 82.8473 14.1443L82.9273 14.222L83.0078 14.2998C83.6861 13.603 84.0292 12.7389 84.0284 11.7326C84.0292 10.7321 83.6848 9.86971 83.0033 9.16985C82.3214 8.46733 81.4673 8.11205 80.4655 8.11328C79.4583 8.11205 78.6016 8.46565 77.9241 9.16549V9.16504C77.2444 9.86219 76.9025 10.7264 76.9034 11.7326C76.9025 12.7389 77.2444 13.603 77.9241 14.3002L77.9271 14.3034L77.9241 14.2998C78.6016 14.9996 79.4583 15.3524 80.4655 15.3515C81.4721 15.3524 82.3288 14.9996 83.0078 14.2998L82.9273 14.222Z" fill="white"/>
<path d="M85.1266 15.0891V8.375H86.1766L89.4397 13.5981H89.4768L89.4397 12.3042V8.375H90.303V15.0891H89.4024L85.9886 9.61286H85.9514L85.9886 10.9073V15.0891H85.1266Z" fill="white"/>
<path d="M85.1274 15.0878H85.2393V8.48552H86.1152L89.3783 13.7087H89.4776H89.5925L89.5523 12.3011V8.48552H90.1918V14.9759H89.4654L86.0514 9.49958H85.9522H85.8372L85.8774 10.9077V14.9759H85.1274V15.0878H85.2393H85.1274V15.1997H85.9893H86.1012V10.904L86.0641 9.60846L85.9522 9.61148V9.72338H85.9893V9.61148L85.8945 9.67101L89.3412 15.1997H90.3037H90.4156V8.26172H89.4404H89.3285V12.3042L89.3657 13.5997L89.4776 13.5968V13.4849H89.4404V13.5968L89.5353 13.5374L86.2393 8.26172H85.1274H85.0155V15.1997H85.1274V15.0878Z" fill="white"/>
<path d="M120.221 34.1115H122.309V20.1224H120.221V34.1115ZM139.028 25.1616L136.634 31.2265H136.563L134.078 25.1616H131.829L135.554 33.6385L133.431 38.3537H135.609L141.35 25.1616H139.028ZM127.187 32.5225C126.501 32.5225 125.548 32.1807 125.548 31.3345C125.548 30.2548 126.736 29.8408 127.761 29.8408C128.681 29.8408 129.111 30.0388 129.67 30.309C129.508 31.6047 128.392 32.5225 127.187 32.5225ZM127.438 24.8555C125.927 24.8555 124.361 25.5217 123.713 26.9974L125.566 27.7711C125.962 26.9974 126.7 26.7452 127.474 26.7452C128.554 26.7452 129.651 27.3934 129.67 28.5453V28.6891C129.291 28.4731 128.482 28.1492 127.492 28.1492C125.494 28.1492 123.46 29.2468 123.46 31.2986C123.46 33.1704 125.098 34.3764 126.933 34.3764C128.338 34.3764 129.111 33.7465 129.598 33.0087H129.67V34.0883H131.685V28.7249C131.685 26.2417 129.832 24.8555 127.438 24.8555ZM114.533 26.8645H111.564V22.0694H114.533C116.094 22.0694 116.981 23.3619 116.981 24.4669C116.981 25.551 116.094 26.8645 114.533 26.8645ZM114.48 20.1224H109.476V34.1115H111.564V28.8115H114.48C116.794 28.8115 119.069 27.136 119.069 24.4669C119.069 21.7979 116.794 20.1224 114.48 20.1224ZM87.1972 32.5252C85.7547 32.5252 84.5469 31.3174 84.5469 29.6586C84.5469 27.9823 85.7547 26.7562 87.1972 26.7562C88.6213 26.7562 89.739 27.9823 89.739 29.6586C89.739 31.3174 88.6213 32.5252 87.1972 32.5252ZM89.5948 25.9449H89.5226C89.0541 25.3862 88.1523 24.8813 87.0167 24.8813C84.637 24.8813 82.4558 26.9725 82.4558 29.6586C82.4558 32.3267 84.637 34.4 87.0167 34.4C88.1523 34.4 89.0541 33.895 89.5226 33.3185H89.5948V34.0035C89.5948 35.8246 88.6213 36.798 87.0529 36.798C85.7731 36.798 84.9798 35.8783 84.6549 35.1033L82.8343 35.8604C83.3572 37.1223 84.7454 38.6729 87.0529 38.6729C89.5047 38.6729 91.578 37.2303 91.578 33.715V25.1699H89.5948V25.9449ZM93.02 34.1115H95.111V20.122H93.02V34.1115ZM98.1939 29.4964C98.1398 27.6574 99.6188 26.7203 100.682 26.7203C101.512 26.7203 102.214 27.1347 102.448 27.7301L98.1939 29.4964ZM104.684 27.9101C104.288 26.8461 103.079 24.8813 100.61 24.8813C98.1575 24.8813 96.1209 26.8103 96.1209 29.6407C96.1209 32.3088 98.1398 34.4 100.844 34.4C103.025 34.4 104.288 33.0658 104.811 32.2908L103.188 31.209C102.648 32.0024 101.908 32.5252 100.844 32.5252C99.7801 32.5252 99.0238 32.0383 98.5361 31.0831L104.9 28.4508L104.684 27.9101ZM53.9834 26.3417V28.3607H58.8148C58.6705 29.4964 58.2919 30.3256 57.715 30.9026C57.0121 31.6059 55.9123 32.3809 53.9834 32.3809C51.0087 32.3809 48.6833 29.9833 48.6833 27.0088C48.6833 24.0341 51.0087 21.6362 53.9834 21.6362C55.5879 21.6362 56.7594 22.2673 57.6249 23.0786L59.049 21.6545C57.8413 20.5006 56.2367 19.6172 53.9834 19.6172C49.9089 19.6172 46.4838 22.9344 46.4838 27.0088C46.4838 31.0831 49.9089 34.4 53.9834 34.4C56.183 34.4 57.8413 33.6792 59.1391 32.3267C60.4733 30.9927 60.8881 29.1178 60.8881 27.6037C60.8881 27.1347 60.8521 26.7023 60.7796 26.3417H53.9834ZM66.3808 32.5252C64.9383 32.5252 63.6944 31.3353 63.6944 29.6407C63.6944 27.928 64.9383 26.7562 66.3808 26.7562C67.8229 26.7562 69.0669 27.928 69.0669 29.6407C69.0669 31.3353 67.8229 32.5252 66.3808 32.5252ZM66.3808 24.8813C63.7485 24.8813 61.6031 26.8824 61.6031 29.6407C61.6031 32.3809 63.7485 34.4 66.3808 34.4C69.0127 34.4 71.1581 32.3809 71.1581 29.6407C71.1581 26.8824 69.0127 24.8813 66.3808 24.8813ZM76.8025 32.5252C75.3606 32.5252 74.1164 31.3353 74.1164 29.6407C74.1164 27.928 75.3606 26.7562 76.8025 26.7562C78.2446 26.7562 79.4887 27.928 79.4887 29.6407C79.4887 31.3353 78.2446 32.5252 76.8025 32.5252ZM76.8025 24.8813C74.1702 24.8813 72.0254 26.8824 72.0254 29.6407C72.0254 32.3809 74.1702 34.4 76.8025 34.4C79.4345 34.4 81.5798 32.3809 81.5798 29.6407C81.5798 26.8824 79.4345 24.8813 76.8025 24.8813Z" fill="white"/>
<path d="M12.3176 36.7858L12.2344 36.7063C11.9087 36.3617 11.7166 35.8267 11.7166 35.134V35.297V10.5488C11.7166 10.5465 11.7166 10.5448 11.7166 10.5431C11.7166 10.5452 11.7166 10.547 11.7166 10.5492V10.7127C11.7166 9.96258 11.9406 9.39743 12.3162 9.05859L26.1806 22.9227L12.3176 36.7858ZM11.7166 10.5418C11.7166 10.4801 11.7182 10.4203 11.7213 10.3612C11.7182 10.4198 11.7166 10.4801 11.7166 10.5418ZM11.7213 10.3585C11.7213 10.3578 11.7213 10.3569 11.7217 10.356C11.7213 10.3569 11.7213 10.3578 11.7213 10.3585ZM11.7217 10.3507C11.7217 10.3503 11.7217 10.3499 11.7217 10.3494C11.7217 10.3499 11.7217 10.3503 11.7217 10.3507Z" fill="url(#paint0_linear_350_462)"/>
<path d="M30.8022 27.7098L30.9077 27.6499L36.383 24.5389C36.905 24.2421 37.2528 23.8824 37.4264 23.5017C37.2533 23.8824 36.9053 24.2426 36.383 24.5393L30.9077 27.6504L30.8022 27.7098ZM30.8036 27.5458L26.1815 22.9229L30.8032 18.3008L36.383 21.4708C37.0915 21.8734 37.4893 22.3923 37.5558 22.9225C37.5558 22.9229 37.5558 22.9238 37.5558 22.9246C37.4893 23.4536 37.0915 23.9729 36.383 24.3754L30.8036 27.5458Z" fill="url(#paint1_linear_350_462)"/>
<path d="M13.3055 37.313C12.9182 37.313 12.5802 37.1871 12.3167 36.9493L12.3172 36.9489C12.5807 37.1867 12.919 37.313 13.3064 37.313C13.34 37.313 13.3741 37.3121 13.4086 37.3104C13.3736 37.3121 13.339 37.313 13.3055 37.313ZM13.3059 37.1491C12.9187 37.1495 12.5807 37.0232 12.3172 36.7854V36.785L26.1802 22.9219L30.8023 27.5447L14.5595 36.7736C14.1101 37.0284 13.6843 37.1491 13.3059 37.1491ZM12.3133 36.9463C12.2887 36.9241 12.2647 36.9004 12.2411 36.8759L12.3133 36.9463Z" fill="url(#paint2_linear_350_462)"/>
<path d="M26.1801 22.9221L12.3157 9.05797C12.5792 8.82063 12.9168 8.69474 13.3036 8.69474C13.683 8.69474 14.1092 8.81582 14.5595 9.07106L30.8018 18.3L26.1801 22.9221ZM30.9063 18.1955L14.5595 8.90769C14.1092 8.65233 13.683 8.53125 13.3036 8.53125C13.3018 8.53125 13.3006 8.53125 13.2987 8.53125C13.301 8.53125 13.3026 8.53125 13.3054 8.53125C13.684 8.53125 14.1096 8.65188 14.5595 8.90724L30.9063 18.1955Z" fill="url(#paint3_linear_350_462)"/>
<path d="M13.4085 37.3127C13.7603 37.2925 14.1498 37.1714 14.5594 36.9394L30.8008 27.7109L14.5594 36.9394C14.1501 37.1719 13.7603 37.2925 13.4085 37.3127ZM12.3165 36.9515L12.313 36.9485C12.3142 36.9495 12.3156 36.9507 12.3165 36.9515ZM12.2409 36.8781L12.2338 36.8712V36.8708C12.2365 36.8734 12.2386 36.8759 12.2409 36.8781Z" fill="black"/>
<path d="M30.8021 27.7083L30.9076 27.6484L30.8021 27.7083Z" fill="url(#paint4_linear_350_462)"/>
<path d="M13.3062 37.3152C12.9189 37.3152 12.5805 37.1888 12.3169 36.951L12.3165 36.9515C12.3156 36.9505 12.3142 36.9493 12.313 36.9484L12.2409 36.8781C12.2386 36.8759 12.2365 36.8732 12.2338 36.8706L12.3169 36.7875C12.5805 37.0253 12.9184 37.1517 13.3057 37.1512C13.6842 37.1512 14.11 37.0306 14.5594 36.7758L30.8021 27.5469L30.9062 27.6509L30.8008 27.7108L14.5594 36.9393C14.1498 37.1714 13.7603 37.2924 13.4085 37.3125C13.3739 37.3142 13.3397 37.3152 13.3062 37.3152Z" fill="url(#paint5_linear_350_462)"/>
<path d="M12.2344 36.8697C11.9087 36.5251 11.7166 35.9901 11.7166 35.2973V35.2969C11.7166 35.9901 11.9087 36.5246 12.2344 36.8692V36.8697Z" fill="black"/>
<path d="M12.2344 36.8682C11.9087 36.5237 11.7166 35.9891 11.7166 35.2959V35.1328C11.7166 35.8257 11.9087 36.3607 12.2344 36.7052L12.3176 36.7848L12.2344 36.8682Z" fill="url(#paint6_linear_350_462)"/>
<path d="M12.2338 36.8686L12.3169 36.7852V36.7854L12.2338 36.8686Z" fill="url(#paint7_linear_350_462)"/>
<path d="M37.4263 23.4998C37.5122 23.3108 37.5556 23.1168 37.5556 22.9226C37.5556 22.9223 37.5556 22.9219 37.5556 22.9219C37.5556 23.1163 37.5122 23.3104 37.4263 23.4998Z" fill="black"/>
<path d="M30.9062 27.651L30.8021 27.547L36.3815 24.3766C37.0901 23.974 37.4879 23.4547 37.5543 22.9258C37.5543 23.1199 37.511 23.314 37.4249 23.5028C37.2514 23.8836 36.9035 24.2433 36.3815 24.5401L30.9062 27.651Z" fill="url(#paint8_linear_350_462)"/>
<path d="M37.5546 22.9219V22.9214C37.5541 22.3361 37.1629 21.7508 36.3816 21.3066L30.9065 18.1957H30.906L30.9065 18.1953L36.3816 21.3062C37.1637 21.7503 37.5554 22.3365 37.5546 22.9219Z" fill="#404040"/>
<path d="M37.5547 22.921C37.4883 22.3908 37.0905 21.8719 36.3819 21.4693L30.8021 18.2994L30.9062 18.1953H30.9067L36.3819 21.3063C37.1631 21.7504 37.5543 22.3357 37.5547 22.921Z" fill="url(#paint9_linear_350_462)"/>
<path d="M11.7166 10.5425C11.7166 10.542 11.7166 10.5415 11.7166 10.5411C11.7166 10.5415 11.7166 10.542 11.7166 10.5425ZM11.7213 10.3606C11.7213 10.3597 11.7213 10.3589 11.7213 10.3579C11.7213 10.3589 11.7213 10.3597 11.7213 10.3606ZM11.7217 10.3553C11.7217 10.3535 11.7217 10.3519 11.7217 10.3501C11.7217 10.3519 11.7217 10.3535 11.7217 10.3553ZM11.7217 10.3488C11.7865 9.19919 12.4116 8.53517 13.2958 8.53125C12.9124 8.53349 12.5785 8.65938 12.3171 8.89493V8.89448L12.3139 8.89762C12.2864 8.92246 12.2602 8.94876 12.2344 8.97584C11.9406 9.28659 11.7553 9.7521 11.7217 10.3488Z" fill="#404040"/>
<path d="M11.7166 10.7121V10.5487C11.7166 10.5464 11.7166 10.5446 11.7166 10.5425C11.7166 10.542 11.7166 10.5416 11.7166 10.5412C11.7166 10.4795 11.7182 10.4192 11.7213 10.3607C11.7213 10.3597 11.7213 10.3589 11.7213 10.358C11.7213 10.3572 11.7213 10.3563 11.7217 10.3554C11.7217 10.3536 11.7217 10.3519 11.7217 10.3501C11.7217 10.3497 11.7217 10.3493 11.7217 10.3488C11.7553 9.75215 11.9406 9.28664 12.2344 8.97588L12.3162 9.05802C11.9406 9.39686 11.7166 9.96192 11.7166 10.7121ZM12.3139 8.89766L12.3171 8.89453C12.3162 8.89587 12.3149 8.89677 12.3139 8.89766Z" fill="url(#paint10_linear_350_462)"/>
<path d="M30.8016 18.2999L14.5594 9.07106C14.1091 8.81582 13.6829 8.69474 13.3035 8.69474C12.9166 8.69474 12.5792 8.82063 12.3156 9.05797L12.2338 8.97584C12.2597 8.94876 12.2858 8.92246 12.3134 8.89762C12.3142 8.89672 12.3156 8.89583 12.3165 8.89493C12.5779 8.65938 12.9118 8.53349 13.2952 8.53125C13.2961 8.53125 13.2973 8.53125 13.2987 8.53125C13.3005 8.53125 13.3017 8.53125 13.3035 8.53125C13.6829 8.53125 14.1091 8.65233 14.5594 8.90769L30.9062 18.1956L30.9057 18.1958L30.8016 18.2999Z" fill="url(#paint11_linear_350_462)"/>
<path d="M144.165 1.00781H8.01742C4.15482 1.00781 1.02356 4.13907 1.02356 8.00168V37.8422C1.02356 41.7048 4.15482 44.836 8.01742 44.836H144.165C148.027 44.836 151.159 41.7048 151.159 37.8422V8.00168C151.159 4.13907 148.027 1.00781 144.165 1.00781Z" stroke="#A6A6A6" stroke-width="0.932515"/>
</g>
<defs>
<linearGradient id="paint0_linear_350_462" x1="24.9513" y1="10.2878" x2="6.17132" y2="29.0677" gradientUnits="userSpaceOnUse">
<stop stop-color="#00A0FF"/>
<stop offset="0.00657445" stop-color="#00A1FF"/>
<stop offset="0.2601" stop-color="#00BEFF"/>
<stop offset="0.5122" stop-color="#00D2FF"/>
<stop offset="0.7604" stop-color="#00DFFF"/>
<stop offset="1" stop-color="#00E3FF"/>
</linearGradient>
<linearGradient id="paint1_linear_350_462" x1="38.4191" y1="22.9236" x2="11.3422" y2="22.9236" gradientUnits="userSpaceOnUse">
<stop stop-color="#FFE000"/>
<stop offset="0.4087" stop-color="#FFBD00"/>
<stop offset="0.7754" stop-color="#FFA500"/>
<stop offset="1" stop-color="#FF9C00"/>
</linearGradient>
<linearGradient id="paint2_linear_350_462" x1="28.3384" y1="25.4903" x2="2.8714" y2="50.9573" gradientUnits="userSpaceOnUse">
<stop stop-color="#FF3A44"/>
<stop offset="1" stop-color="#C31162"/>
</linearGradient>
<linearGradient id="paint3_linear_350_462" x1="8.7222" y1="0.737957" x2="20.0943" y2="12.11" gradientUnits="userSpaceOnUse">
<stop stop-color="#32A071"/>
<stop offset="0.0685" stop-color="#2DA771"/>
<stop offset="0.4762" stop-color="#15CF74"/>
<stop offset="0.8009" stop-color="#06E775"/>
<stop offset="1" stop-color="#00F076"/>
</linearGradient>
<linearGradient id="paint4_linear_350_462" x1="38.4188" y1="22.9221" x2="11.3427" y2="22.9221" gradientUnits="userSpaceOnUse">
<stop stop-color="#CCB300"/>
<stop offset="0.4087" stop-color="#CC9700"/>
<stop offset="0.7754" stop-color="#CC8400"/>
<stop offset="1" stop-color="#CC7D00"/>
</linearGradient>
<linearGradient id="paint5_linear_350_462" x1="28.3381" y1="25.4925" x2="2.8712" y2="50.9594" gradientUnits="userSpaceOnUse">
<stop stop-color="#CC2E36"/>
<stop offset="1" stop-color="#9C0E4E"/>
</linearGradient>
<linearGradient id="paint6_linear_350_462" x1="24.9513" y1="10.2866" x2="6.17131" y2="29.0665" gradientUnits="userSpaceOnUse">
<stop stop-color="#008DE0"/>
<stop offset="0.00657445" stop-color="#008DE0"/>
<stop offset="0.2601" stop-color="#00A7E0"/>
<stop offset="0.5122" stop-color="#00B8E0"/>
<stop offset="0.7604" stop-color="#00C4E0"/>
<stop offset="1" stop-color="#00C7E0"/>
</linearGradient>
<linearGradient id="paint7_linear_350_462" x1="28.3384" y1="25.4904" x2="2.87126" y2="50.9578" gradientUnits="userSpaceOnUse">
<stop stop-color="#E0333C"/>
<stop offset="1" stop-color="#AB0F56"/>
</linearGradient>
<linearGradient id="paint8_linear_350_462" x1="38.4176" y1="22.9248" x2="11.3408" y2="22.9248" gradientUnits="userSpaceOnUse">
<stop stop-color="#E0C500"/>
<stop offset="0.4087" stop-color="#E0A600"/>
<stop offset="0.7754" stop-color="#E09100"/>
<stop offset="1" stop-color="#E08900"/>
</linearGradient>
<linearGradient id="paint9_linear_350_462" x1="38.4181" y1="22.9221" x2="11.3412" y2="22.9221" gradientUnits="userSpaceOnUse">
<stop stop-color="#FFE840"/>
<stop offset="0.4087" stop-color="#FFCE40"/>
<stop offset="0.7754" stop-color="#FFBC40"/>
<stop offset="1" stop-color="#FFB540"/>
</linearGradient>
<linearGradient id="paint10_linear_350_462" x1="24.9512" y1="10.2872" x2="6.17132" y2="29.067" gradientUnits="userSpaceOnUse">
<stop stop-color="#40B8FF"/>
<stop offset="0.00657445" stop-color="#40B9FF"/>
<stop offset="0.2601" stop-color="#40CEFF"/>
<stop offset="0.5122" stop-color="#40DDFF"/>
<stop offset="0.7604" stop-color="#40E7FF"/>
<stop offset="1" stop-color="#40EAFF"/>
</linearGradient>
<linearGradient id="paint11_linear_350_462" x1="8.7221" y1="0.737962" x2="20.0941" y2="12.11" gradientUnits="userSpaceOnUse">
<stop stop-color="#65B895"/>
<stop offset="0.0685" stop-color="#62BD95"/>
<stop offset="0.4762" stop-color="#50DB97"/>
<stop offset="0.8009" stop-color="#44ED98"/>
<stop offset="1" stop-color="#40F498"/>
</linearGradient>
<clipPath id="clip0_350_462">
<rect width="152" height="45" fill="white" transform="translate(0 0.421875)"/>
</clipPath>
</defs>
</svg>
