<svg width="360" height="153" viewBox="0 0 360 153" fill="none" xmlns="http://www.w3.org/2000/svg">
<path d="M124.276 139.985H134.898V95.1946H124.276V139.985ZM163.614 140.625C175.836 140.625 183.322 134.483 183.322 125.14C183.322 117.462 178.459 113.047 169.309 111.895L160.991 110.807C158.751 110.487 156 109.72 156 106.904C156 104.281 158.303 102.617 161.63 102.617C165.342 102.617 167.645 104.281 168.413 107.608L179.739 107.544C179.099 99.5457 172.252 94.5547 162.014 94.5547C151.585 94.5547 145.314 99.8016 145.314 108.056C145.314 114.903 149.537 118.87 157.919 119.958L167.069 121.109C169.565 121.493 172.188 122.389 172.188 125.78C172.188 129.556 168.989 131.795 163.806 131.795C157.407 131.795 153.568 128.404 153.184 122.325H141.155C141.603 132.819 149.793 140.625 163.614 140.625ZM211.917 140.625C225.866 140.625 236.296 130.771 236.296 117.59C236.296 104.473 225.866 94.5547 211.917 94.5547C197.968 94.5547 187.538 104.473 187.538 117.59C187.538 130.771 197.968 140.625 211.917 140.625ZM211.917 131.091C204.175 131.091 198.736 125.524 198.736 117.59C198.736 109.72 204.175 104.153 211.917 104.153C219.66 104.153 225.099 109.72 225.099 117.59C225.099 125.524 219.66 131.091 211.917 131.091Z" fill="#050038"/>
</svg>
