<svg width="288" height="63" viewBox="0 0 288 63" fill="none" xmlns="http://www.w3.org/2000/svg">
<g clip-path="url(#clip0_350_279)">
<path d="M287.938 0.921875H0V62.6228H287.938V0.921875Z" fill="white"/>
<path d="M0.431196 20.5215C1.27465 18.8709 3.39616 18.0531 5.14323 18.633C6.23599 18.9787 7.12241 19.8576 7.53984 20.9178C9.87245 26.4332 12.2155 31.9448 14.5472 37.4601C14.6112 37.3426 14.6724 37.2232 14.7258 37.1C16.5178 32.8522 18.3241 28.6091 20.1247 24.3642C20.9873 22.3688 22.3818 20.5224 24.3324 19.4917C25.4166 18.9128 26.6296 18.5957 27.8503 18.4954C31.0092 18.1506 34.2216 19.656 36.1942 22.1051C38.0272 20.5338 40.1429 19.1975 42.5224 18.6588C43.809 18.3617 45.1453 18.419 46.4464 18.5785C48.073 18.7896 49.6806 19.3504 50.9884 20.3591C51.6475 20.8548 52.2148 21.4623 52.7277 22.1062C54.9868 19.9226 58.0378 18.4802 61.2081 18.4477C63.2284 18.4047 65.2706 18.9415 66.9709 20.0438C68.9281 21.2894 70.3761 23.3069 70.9025 25.5697C71.1604 26.6137 71.1719 27.6959 71.169 28.7648C71.169 33.3498 71.1681 37.9348 71.1699 42.5198C71.1575 43.1302 71.1347 43.7492 70.9665 44.3405C70.6723 45.4724 69.9206 46.5231 68.8268 46.993C67.287 47.6655 65.2572 47.4134 64.1377 46.0875C63.236 45.0683 63.0086 43.6479 63.0478 42.3298C63.0498 38.0638 63.0478 33.7979 63.0487 29.5319C63.0478 28.4248 62.6409 27.2939 61.8251 26.5268C61.0792 25.8132 60.0389 25.4608 59.0159 25.4531C57.8792 25.4245 56.7033 25.7847 55.8666 26.5756C55.0623 27.3253 54.6306 28.4325 54.6382 29.5252C54.6382 33.9201 54.6391 38.3141 54.6373 42.7089C54.6315 43.8476 54.3689 45.032 53.6419 45.9357C53.0678 46.676 52.1938 47.1602 51.2701 47.293C50.2394 47.4429 49.1247 47.292 48.2583 46.6854C47.4779 46.1515 46.9612 45.2976 46.7186 44.3949C46.4702 43.5381 46.5113 42.6373 46.5103 41.7556C46.5103 37.6798 46.5094 33.6048 46.5113 29.529C46.5017 28.5155 46.1684 27.483 45.4816 26.7246C44.7117 25.8591 43.533 25.4408 42.3915 25.4522C41.2424 25.4436 40.0551 25.8314 39.2413 26.6653C38.4618 27.4342 38.0845 28.5423 38.0864 29.6245C38.0864 34.0509 38.0854 38.4784 38.0864 42.9048C38.0787 44.0223 37.7597 45.1744 37.0252 46.0368C36.4864 46.6807 35.7156 47.1153 34.8922 47.2653C33.7097 47.484 32.3896 47.2825 31.4562 46.4811C30.4294 45.6089 29.9882 44.222 29.9843 42.9077C29.9805 37.5222 29.9843 32.1377 29.9824 26.7532C29.9929 26.3319 29.7875 25.9069 29.4245 25.6843C28.8696 25.3118 27.9955 25.4914 27.73 26.1342C25.2045 31.6362 22.6751 37.1363 20.1534 42.6402C19.6041 43.7855 19.0242 44.9451 18.1531 45.8851C17.5188 46.5709 16.6735 47.0638 15.7517 47.2348C14.3036 47.5117 12.6865 47.313 11.5088 46.3674C10.265 45.3673 9.54769 43.8944 8.89242 42.4768C6.03825 36.2603 3.17455 30.0486 0.325168 23.8312C-0.13142 22.7853 -0.117093 21.5311 0.431196 20.5215Z" fill="#050038"/>
<path d="M166.767 19.3955C168.645 18.8845 170.637 18.8291 172.548 19.1825C174.67 19.5732 176.682 20.5676 178.255 22.0472C181.206 24.7867 182.594 28.9075 182.532 32.8735C182.481 33.7962 181.644 34.6072 180.714 34.589C174.232 34.591 167.749 34.5881 161.266 34.59C161.415 36.4679 162.025 38.3268 163.097 39.8828C164.156 41.4255 165.712 42.6214 167.481 43.2318C169.307 43.8822 171.315 43.9185 173.198 43.504C174.992 43.1056 176.652 42.1964 178.029 40.989C178.345 40.7195 178.636 40.3948 179.04 40.2554C179.741 39.9879 180.585 40.2745 181.017 40.879C181.489 41.4942 181.448 42.4428 180.912 43.0073C179.59 44.3484 178.042 45.4927 176.3 46.2264C174.529 46.98 172.595 47.2866 170.677 47.2961C168.659 47.3028 166.629 46.8845 164.808 46.0076C161.648 44.529 159.189 41.6977 158.066 38.4061C157.248 36.0916 157.049 33.587 157.315 31.156C157.699 27.788 159.208 24.503 161.727 22.2009C163.153 20.8847 164.892 19.9075 166.767 19.3955ZM166.774 23.0454C165.135 23.7685 163.783 25.0589 162.868 26.5892C161.946 28.0965 161.442 29.8321 161.249 31.5801C161.716 31.6126 162.185 31.5897 162.654 31.5963C167.94 31.5983 173.228 31.5916 178.514 31.5992C178.523 31.1408 178.429 30.6899 178.358 30.239C178.028 28.4213 177.333 26.636 176.154 25.1975C175.105 23.9012 173.616 22.9699 171.991 22.5965C170.262 22.2058 168.4 22.3156 166.774 23.0454Z" fill="#050038"/>
<path d="M74.387 19.1028C75.0556 18.9175 75.8389 19.0609 76.3374 19.5623C76.6278 19.8355 76.8341 20.187 76.9679 20.5605C79.2795 27.2451 81.5844 33.9324 83.8864 40.6208C84.2169 39.8251 84.4568 38.9932 84.7577 38.1851C86.7874 32.3115 88.822 26.4408 90.8623 20.571C91.0887 19.8899 91.5998 19.2462 92.3295 19.0867C93.045 18.9377 93.8693 19.0179 94.4367 19.5175C94.7959 19.8222 95.0184 20.2501 95.1722 20.6886C97.3463 26.9939 99.5117 33.303 101.682 39.6102C101.81 39.9455 101.893 40.299 102.054 40.6217C104.395 33.8819 106.745 27.1447 109.096 20.4096C109.275 19.9291 109.591 19.4774 110.057 19.2404C110.753 18.8851 111.651 18.9768 112.263 19.462C112.832 19.8938 113.113 20.6694 112.936 21.3639C112.806 21.8749 112.608 22.365 112.433 22.8606C109.902 29.9082 107.351 36.9499 104.816 43.9965C104.615 44.5324 104.443 45.0797 104.219 45.607C103.916 46.2756 103.342 46.8678 102.606 47.0293C101.898 47.1678 101.094 47.0598 100.549 46.5526C99.953 46.0321 99.7725 45.2335 99.5165 44.52C97.3634 38.3016 95.199 32.087 93.0411 25.8705C93.0144 25.817 92.96 25.711 92.9332 25.6575C92.0793 27.9911 91.2884 30.3495 90.4554 32.6916C89.0351 36.7455 87.6166 40.8004 86.2009 44.8571C86.0051 45.4188 85.8293 46.0215 85.388 46.4495C84.8044 47.079 83.8368 47.2175 83.043 46.9691C82.2692 46.7208 81.7363 46.0148 81.4774 45.2717C78.7341 37.611 75.9735 29.9569 73.2321 22.2951C73.0802 21.8539 72.8854 21.4087 72.9092 20.9331C72.9045 20.0792 73.576 19.3111 74.387 19.1028Z" fill="#050038"/>
<path d="M122.909 19.1194C125.084 18.9676 127.3 18.9542 129.432 19.4671C131.04 19.8502 132.594 20.5589 133.837 21.6632C135.321 22.9403 136.267 24.7543 136.689 26.6493C137.165 28.6257 137.012 30.6688 137.038 32.6815C137.038 36.8224 137.036 40.9631 137.039 45.1049C137.053 45.721 136.778 46.3457 136.286 46.723C135.699 47.1796 134.857 47.2207 134.189 46.9245C133.561 46.6456 133.147 45.977 133.14 45.295C133.131 44.4115 133.155 43.5278 133.13 42.6442C132.143 43.8478 130.99 44.9311 129.627 45.6981C127.772 46.7708 125.622 47.2913 123.485 47.2971C121.324 47.3497 119.134 46.8615 117.243 45.8013C115.708 44.9358 114.394 43.6186 113.696 41.9852C112.973 40.3356 112.906 38.4567 113.265 36.7086C113.643 34.9032 114.719 33.268 116.208 32.1829C118.088 30.7969 120.421 30.1788 122.716 29.9572C126.215 29.6726 129.764 30.048 133.135 31.0271C133.195 29.2475 133.04 27.3638 132.073 25.8183C131.292 24.5202 129.986 23.6004 128.557 23.1428C127.386 22.7607 126.147 22.6126 124.919 22.6365C123.246 22.6108 121.553 22.7865 119.968 23.3434C119.455 23.5115 118.97 23.7512 118.465 23.9365C117.786 24.183 116.991 23.9394 116.53 23.3969C115.832 22.626 116.003 21.199 116.962 20.7195C118.821 19.8216 120.849 19.2724 122.909 19.1194ZM121.692 33.2947C120.344 33.6635 119.016 34.3397 118.161 35.4774C117.289 36.6045 117.029 38.1147 117.251 39.5007C117.457 40.7883 118.231 41.9527 119.298 42.6939C120.968 43.887 123.11 44.2128 125.118 44.0331C127.186 43.8507 129.244 43.1095 130.821 41.735C132.203 40.5476 133.118 38.8024 133.183 36.9703C133.194 35.997 133.186 35.0237 133.185 34.0513C131.479 33.5374 129.723 33.1982 127.952 33.0158C125.869 32.8238 123.731 32.7455 121.692 33.2947Z" fill="#050038"/>
<path d="M141.985 21.0287C141.969 19.9779 142.875 19.0027 143.932 18.9808C145.025 18.9062 146.046 19.8376 146.07 20.9341C146.087 22.5016 146.07 24.071 146.076 25.6395C146.414 25.0596 146.693 24.4455 147.088 23.899C148.757 21.4757 151.37 19.6628 154.283 19.1383C155.031 19.0304 155.864 18.889 156.549 19.2997C157.756 19.9789 157.846 21.9399 156.734 22.75C156.255 23.1426 155.622 23.176 155.039 23.2667C152.962 23.6306 150.96 24.5792 149.471 26.0903C148.232 27.3053 147.358 28.8604 146.823 30.5043C146.247 32.2819 146.041 34.1637 146.076 36.0274C146.076 38.9885 146.075 41.9496 146.076 44.9108C146.083 45.4753 145.876 46.0493 145.471 46.4487C144.977 46.9683 144.188 47.1631 143.503 46.9701C142.831 46.8088 142.274 46.2662 142.079 45.6071C141.948 45.2288 141.99 44.8248 141.986 44.4332C141.986 36.6319 141.987 28.8308 141.985 21.0287Z" fill="#050038"/>
</g>
<defs>
<clipPath id="clip0_350_279">
<rect width="287.938" height="61.7009" fill="white" transform="translate(0 0.921875)"/>
</clipPath>
</defs>
</svg>
