<svg width="54" height="64" viewBox="0 0 54 64" fill="none" xmlns="http://www.w3.org/2000/svg">
<g clip-path="url(#clip0_350_78)">
<path d="M24.4868 36.6874H30.9592V34.5268H30.2485C30.2485 35.3533 29.644 35.9626 28.7207 35.9626H27.7242V32.737H28.7987V32.0215H24.4868V32.737H25.5731V35.9626H24.4868V36.6852V36.6874Z" fill="#050038"/>
<path d="M34.0721 36.6898L36.5892 36.6922L38.7262 32.7393H39.7982V32.0215H36.575V32.7393H37.5077L35.9492 35.6154L34.3719 32.7393H35.503V32.0215H30.8276L30.8252 32.7393H31.8972L34.0721 36.6898Z" fill="#050038"/>
<path d="M11.5987 32.0215H6.92326L6.9209 32.7393H7.99058L10.1677 36.6898L12.6849 36.6922L14.8219 32.7393H15.8939V32.0215H12.6707V32.7393H13.6011L12.045 35.6154L10.4676 32.7393H11.5987V32.0215Z" fill="#050038"/>
<path d="M16.5203 34.3607C16.5203 35.7351 17.6278 36.8283 19.8475 36.8283C22.0671 36.8283 23.1627 35.7351 23.1627 34.3607C23.1627 33.0053 22.001 31.9238 19.8333 31.9238C17.668 31.9238 16.5181 33.0053 16.5181 34.3607H16.5203ZM20.9903 34.3725C20.9762 35.2202 20.6243 36.1034 19.812 36.0892C19.021 36.075 18.6739 35.2014 18.6881 34.3324C18.7047 33.4327 19.1343 32.6487 19.8759 32.6606C20.6173 32.6747 21.0068 33.4729 20.9927 34.3725H20.9903Z" fill="#050038"/>
<path d="M40.4164 34.3607C40.4164 35.7351 41.5239 36.8283 43.7435 36.8283C45.9632 36.8283 47.0588 35.7351 47.0588 34.3607C47.0588 33.0053 45.897 31.9238 43.7317 31.9238C41.5664 31.9238 40.4164 33.0053 40.4164 34.3607ZM43.7718 32.6606C44.5109 32.6747 44.9029 33.4729 44.8863 34.3725C44.8698 35.2202 44.5204 36.1034 43.7081 36.0892C42.9171 36.075 42.5699 35.2014 42.584 34.3324C42.6006 33.4327 43.0304 32.6487 43.7718 32.6606Z" fill="#050038"/>
<path d="M48.9336 19.5177L46.2251 22.2261C48.5463 25.8083 49.897 30.0799 49.897 34.668C49.897 47.3175 39.6418 57.5728 26.9922 57.5728C14.3426 57.5728 4.08736 47.3175 4.08736 34.668C4.08736 22.0184 14.3426 11.7631 26.9922 11.7631C31.5897 11.7631 35.8708 13.1185 39.46 15.4516L42.1684 12.7431C37.8614 9.756 32.631 8.00391 26.9922 8.00391C12.267 8.00391 0.328125 19.9403 0.328125 34.668C0.328125 49.3932 12.2646 61.332 26.9922 61.332C41.7174 61.332 53.6562 49.3956 53.6562 34.668C53.6562 29.0409 51.9112 23.8201 48.9359 19.5177H48.9336Z" fill="#050038"/>
<path d="M40.4024 9.05273V9.80127C42.0199 10.6773 43.5405 11.7116 44.9502 12.8733L41.1509 16.6727C42.5842 17.7967 43.8782 19.0907 45.0046 20.5216L48.7992 16.7271C49.9634 18.139 50.9977 19.6621 51.8737 21.2561H52.6034V9.05273H40.4H40.4024Z" fill="#050038"/>
</g>
<defs>
<clipPath id="clip0_350_78">
<rect width="53.3281" height="63.9938" fill="white" transform="translate(0.328125 0.00390625)"/>
</clipPath>
</defs>
</svg>
