<svg width="118" height="64" viewBox="0 0 118 64" fill="none" xmlns="http://www.w3.org/2000/svg">
<g clip-path="url(#clip0_350_58)">
<path d="M68.0555 34.9483C68.0555 32.1832 66.872 29.7402 62.869 29.7402C60.8152 29.7402 59.1838 30.3255 58.2992 30.8379L58.9475 33.0562C59.7619 32.5453 61.0614 32.1245 62.2879 32.1245C64.3145 32.1217 64.6465 33.2681 64.6465 34.0051V34.1826C60.2227 34.1754 57.4263 35.704 57.4263 38.8168C57.4263 40.7188 58.8459 42.5021 61.3276 42.5021C62.8418 42.5021 64.1212 41.8909 64.8855 40.9263H64.9599C64.9599 40.9263 65.4638 43.0344 68.2502 42.2286C68.1085 41.3456 68.0555 40.4154 68.0555 39.2847V34.9483ZM64.7553 37.8679C64.7553 38.0912 64.7367 38.3231 64.6709 38.522C64.4161 39.3735 63.5373 40.0862 62.4439 40.0862C61.5209 40.0862 60.7967 39.5638 60.7967 38.4689C60.7967 36.7945 62.6456 36.3337 64.7553 36.3451" fill="#050038"/>
<path d="M0.328125 25.9785C0.328125 25.9785 3.21765 37.8 3.67707 39.715C4.21805 41.9533 5.18696 42.7806 7.98349 42.2295L9.78962 34.8991C10.2462 33.0829 10.5567 31.7805 10.8516 29.9299H10.9016C11.1063 31.7991 11.4011 33.0829 11.7747 34.9048C11.7747 34.9048 12.5117 38.2352 12.8939 39.9798C13.2659 41.7244 14.3135 42.825 17.0571 42.2295L21.3564 25.9785H17.8857L16.4102 33.0085C16.0196 35.045 15.6646 36.6494 15.3884 38.5157H15.3383C15.0893 36.6694 14.7729 35.1309 14.3666 33.1358L12.838 25.9785H9.21717L7.5856 32.9526C7.12045 35.0822 6.6854 36.7896 6.41203 38.5972H6.36482C6.08288 36.9012 5.70077 34.7416 5.2957 32.6922C5.2957 32.6922 4.3268 27.6988 3.98478 25.9785" fill="#050038"/>
<path d="M31.0279 34.9483C31.0279 32.1832 29.8415 29.7402 25.8384 29.7402C23.7904 29.7402 22.1561 30.3255 21.2716 30.8379L21.9198 33.0562C22.7314 32.5453 24.0295 32.1245 25.2602 32.1245C27.2868 32.1217 27.6188 33.2681 27.6188 34.0051V34.1826C23.1951 34.1754 20.3958 35.704 20.3958 38.8168C20.3958 40.7188 21.8212 42.5021 24.2913 42.5021C25.8198 42.5021 27.0879 41.8909 27.8521 40.9263H27.9294C27.9294 40.9263 28.4361 43.0344 31.2197 42.2286C31.0766 41.3456 31.0279 40.4154 31.0279 39.2847V34.9483ZM27.7248 37.8679C27.7248 38.0912 27.7062 38.3231 27.6432 38.522C27.3854 39.3735 26.5068 40.0862 25.4106 40.0862C24.4932 40.0862 23.7661 39.5638 23.7661 38.4689C23.7661 36.7945 25.6151 36.3337 27.7248 36.3451" fill="#050038"/>
<path d="M32.8289 25.9785V42.2238H36.132V38.779V25.9785H32.8289Z" fill="#050038"/>
<path d="M78.1931 25.9785V37.9647C78.1931 39.6191 78.5036 40.7727 79.1719 41.4796C79.7588 42.0993 80.719 42.5028 81.8625 42.5028C82.8444 42.5028 83.8046 42.3139 84.2583 42.1494L84.2183 39.569C83.8791 39.6476 83.4913 39.715 82.9588 39.715C81.8311 39.715 81.459 39.0007 81.459 37.5152V32.9269H84.3356V29.8226H81.459V25.9785" fill="#050038"/>
<path d="M69.656 30.022V42.2285H73.0708V35.9771C73.0708 35.6408 73.0921 35.3501 73.1452 35.0811C73.3998 33.763 74.4003 32.9287 75.8415 32.9287C76.2437 32.9287 76.517 32.9731 76.8205 33.0203V29.8201C76.5657 29.7744 76.3925 29.75 76.0791 29.75C74.801 29.75 73.3526 30.5614 72.7416 32.329H72.6572V30.022" fill="#050038"/>
<path d="M38.0505 30.022V42.2285H41.378V35.064C41.378 34.7276 41.4152 34.3842 41.534 34.0735C41.8045 33.348 42.4757 32.5079 43.5534 32.5079C44.8929 32.5079 45.5255 33.6385 45.5255 35.27V42.2285H48.8445V34.9782C48.8445 34.6618 48.8889 34.2739 48.9818 33.9934C49.248 33.1705 49.9751 32.5079 50.9798 32.5079C52.3336 32.5079 52.9892 33.6142 52.9892 35.5377V42.2285H56.3051V35.0311C56.3051 31.2499 54.3817 29.75 52.1976 29.75C51.2374 29.75 50.4732 29.9861 49.7861 30.4098C49.2051 30.7661 48.6957 31.2685 48.239 31.9254H48.189C47.6637 30.6116 46.43 29.75 44.8185 29.75C42.7519 29.75 41.813 30.7933 41.2607 31.675H41.2105V30.022" fill="#050038"/>
<path d="M102.207 29.4747C102.86 29.4747 103.409 29.134 103.481 28.696L104.128 21.3684C104.128 20.6428 103.274 20.0488 102.207 20.0488C101.135 20.0488 100.287 20.6428 100.287 21.3684L100.939 28.696C101.008 29.134 101.555 29.4747 102.207 29.4747Z" fill="#050038"/>
<path d="M98.2377 31.7679C98.5611 31.1954 98.5425 30.56 98.1934 30.2765L92.1537 26.0532C91.5255 25.6869 90.5852 26.1234 90.0471 27.0479C89.5103 27.971 89.6191 29.0071 90.2346 29.3663L96.9209 32.4663C97.3489 32.6265 97.9085 32.3288 98.2377 31.7622" fill="#050038"/>
<path d="M106.175 31.762C106.517 32.3288 107.077 32.6265 107.493 32.4748L114.18 29.3662C114.801 28.9999 114.894 27.9736 114.369 27.0506C113.832 26.126 112.886 25.6924 112.259 26.0516L106.218 30.2707C105.883 30.5585 105.859 31.1967 106.182 31.7677" fill="#050038"/>
<path d="M102.207 38.627C102.86 38.627 103.409 38.9676 103.481 39.4056L104.128 46.7331C104.128 47.4588 103.274 48.0469 102.207 48.0469C101.135 48.0469 100.287 47.4588 100.287 46.7331L100.939 39.4056C101.008 38.9676 101.555 38.627 102.207 38.627Z" fill="#050038"/>
<path d="M106.175 36.3415C106.517 35.7733 107.077 35.4698 107.493 35.6345L114.18 38.7373C114.801 39.0964 114.894 40.1312 114.369 41.0557C113.832 41.9731 112.886 42.4096 112.259 42.0504L106.218 37.8256C105.883 37.5408 105.859 36.9053 106.182 36.3415" fill="#050038"/>
<path d="M98.2377 36.3354C98.5611 36.9064 98.5425 37.5404 98.1934 37.8266L92.1537 42.0443C91.5255 42.4107 90.5852 41.9727 90.0471 41.0554C89.5103 40.1323 89.6191 39.0961 90.2346 38.7369L96.9209 35.6341C97.3489 35.4709 97.9085 35.7714 98.2377 36.3354Z" fill="#050038"/>
<path d="M116.136 41.407H116.219C116.332 41.407 116.378 41.4428 116.391 41.533C116.415 41.6332 116.428 41.7005 116.452 41.729H116.667C116.648 41.7076 116.624 41.6532 116.611 41.5273C116.587 41.4185 116.531 41.3569 116.452 41.3354V41.3154C116.561 41.2912 116.624 41.2181 116.624 41.128C116.624 41.0464 116.587 40.9877 116.55 40.9505C116.478 40.9161 116.409 40.8889 116.258 40.8889C116.123 40.8889 116.024 40.9004 115.946 40.9191V41.729H116.136V41.407ZM116.142 41.0379L116.239 41.0249C116.354 41.0249 116.415 41.0779 116.415 41.1523C116.415 41.2353 116.332 41.274 116.226 41.274H116.142V41.0379ZM116.263 40.4883C115.794 40.4883 115.422 40.8547 115.422 41.304C115.422 41.7649 115.794 42.1313 116.263 42.1313C116.739 42.1313 117.099 41.7649 117.099 41.304C117.099 40.8547 116.739 40.4883 116.263 40.4883ZM116.263 40.6528C116.624 40.6528 116.892 40.9448 116.892 41.304C116.892 41.6661 116.624 41.9666 116.263 41.9609C115.903 41.9609 115.629 41.6661 115.629 41.304C115.629 40.9448 115.903 40.6528 116.258 40.6528" fill="#050038"/>
</g>
<defs>
<clipPath id="clip0_350_58">
<rect width="117.328" height="63.9972" fill="white" transform="translate(0.328125 0.00195312)"/>
</clipPath>
</defs>
</svg>
